<?xml version="1.0" encoding="utf-8"?>
<!-- Generator: Adobe Illustrator 16.0.0, SVG Export Plug-In . SVG Version: 6.00 Build 0)  -->
<!DOCTYPE svg PUBLIC "-//W3C//DTD SVG 1.1//EN" "http://www.w3.org/Graphics/SVG/1.1/DTD/svg11.dtd">
<svg version="1.1"
	 id="圖層_1" xmlns:dc="http://purl.org/dc/elements/1.1/" xmlns:rdf="http://www.w3.org/1999/02/22-rdf-syntax-ns#" xmlns:cc="http://creativecommons.org/ns#"
	 xmlns="http://www.w3.org/2000/svg" xmlns:xlink="http://www.w3.org/1999/xlink" x="0px" y="0px" width="24px" height="24px"
	 viewBox="0 0 24 24" enable-background="new 0 0 24 24" xml:space="preserve">
<g>
	<g>
		<path fill="#ECF0F1" d="M3.761,20.239c-0.852,0-1.545-0.692-1.545-1.546V8.395c0-0.852,0.693-1.544,1.545-1.544H20.24
			c0.852,0,1.545,0.692,1.545,1.544v10.298c0,0.854-0.693,1.546-1.545,1.546H3.761z"/>
		<g>
			<rect x="12" y="9.425" fill="#63B4E0" width="8.24" height="1.03"/>
			<rect x="12" y="11.485" fill="#63B4E0" width="5.15" height="1.03"/>
			<rect x="12" y="13.544" fill="#63B4E0" width="7.21" height="1.032"/>
			<rect x="12" y="15.605" fill="#63B4E0" width="4.121" height="1.029"/>
		</g>
	</g>
	<g>
		<path fill="#294051" d="M10.769,18.693l-0.427-2.57c-0.084-0.497-0.514-0.861-1.016-0.861h-4.12c-0.503,0-0.934,0.364-1.016,0.861
			l-0.429,2.57H10.769z"/>
		<circle fill="#F6CAAD" cx="7.265" cy="12.343" r="2.231"/>
		<path fill="#2A2A36" d="M7.267,10.112c-0.003,0-0.007,0-0.012,0c-1.228,0.005-2.221,1.001-2.221,2.23
			c0,0.14,0.015,0.273,0.038,0.404c0.281-0.703,0.324-0.848,1.176-0.676c0.797,0.158,2.12-0.019,2.596-0.534
			c0.243,0.339,0.425,0.45,0.649,0.862c0.001-0.021,0.003-0.036,0.003-0.057C9.497,11.112,8.499,10.113,7.267,10.112z"/>
		<polygon fill="#E5532F" points="7.872,18.693 7.608,15.262 6.922,15.262 6.658,18.693 		"/>
	</g>
	<path fill="#D0D3D6" d="M20.24,6.335H3.761c-1.136,0-2.06,0.924-2.06,2.06v10.298c0,1.136,0.924,2.062,2.06,2.062H20.24
		c1.135,0,2.059-0.926,2.059-2.062V8.395C22.299,7.259,21.375,6.335,20.24,6.335z M21.27,18.693c0,0.57-0.461,1.032-1.029,1.032
		H3.761c-0.569,0-1.031-0.462-1.031-1.032V8.395c0-0.568,0.462-1.03,1.031-1.03H20.24c0.568,0,1.029,0.462,1.029,1.03V18.693z"/>
	<circle fill="#7E7387" cx="18.695" cy="17.15" r="1.545"/>
	<path fill="#D3AF53" d="M16.121,5.305H15.09V4.276c0-0.569-0.461-1.031-1.029-1.031H9.94c-0.568,0-1.029,0.461-1.029,1.031v1.029
		H7.88c-0.568,0-1.029,0.461-1.029,1.03v1.03c0,0.568,0.461,1.03,1.029,1.03h8.241c0.566,0,1.029-0.462,1.029-1.03v-1.03
		C17.15,5.767,16.688,5.305,16.121,5.305z"/>
</g>
</svg>
