<?xml version="1.0" encoding="utf-8"?>
<!-- Generator: Adobe Illustrator 16.0.0, SVG Export Plug-In . SVG Version: 6.00 Build 0)  -->
<!DOCTYPE svg PUBLIC "-//W3C//DTD SVG 1.1//EN" "http://www.w3.org/Graphics/SVG/1.1/DTD/svg11.dtd">
<svg version="1.1"
	 id="圖層_1" xmlns:dc="http://purl.org/dc/elements/1.1/" xmlns:rdf="http://www.w3.org/1999/02/22-rdf-syntax-ns#" xmlns:cc="http://creativecommons.org/ns#"
	 xmlns="http://www.w3.org/2000/svg" xmlns:xlink="http://www.w3.org/1999/xlink" x="0px" y="0px" width="24px" height="24px"
	 viewBox="0 0 24 24" enable-background="new 0 0 24 24" xml:space="preserve">
<g>
	<g>
		<path fill-rule="evenodd" clip-rule="evenodd" fill="#F1EEE5" d="M9.021,8.731L4.334,7.198v3.958c0.088,0,0.175,0.023,0.263,0.073
			c1.081,0.574,2.03,1.235,2.848,1.985c0.418-0.293,0.817-0.617,1.196-0.978c0.118-0.137,0.245-0.278,0.38-0.423v0.408
			c-0.059,0.069-0.126,0.141-0.205,0.22c-0.418,0.418-0.88,0.793-1.387,1.125c-0.847-0.801-1.835-1.5-2.964-2.104
			c-0.068-0.039-0.141-0.043-0.219-0.014c-0.078,0.018-0.126,0.057-0.146,0.116c-0.049,0.079-0.063,0.151-0.044,0.219
			c0.029,0.069,0.073,0.122,0.131,0.161c1.159,0.614,2.157,1.333,2.994,2.161c0.01,0.01,0.024,0.02,0.044,0.029
			c0.35,0.332,0.667,0.682,0.948,1.051c-1.362,0.701-2.702,1.529-4.016,2.482c-0.048,0.049-0.083,0.117-0.102,0.205
			c-0.01,0.066,0.01,0.135,0.059,0.205c0.029,0.059,0.087,0.088,0.176,0.088c0.077,0.02,0.145,0.01,0.204-0.029
			c1.314-0.965,2.652-1.797,4.015-2.498c0.098,0.146,0.19,0.293,0.278,0.439c0.088,0.125,0.166,0.262,0.234,0.408v0.611
			c-0.146-0.301-0.302-0.594-0.467-0.875c-0.048-0.078-0.097-0.15-0.146-0.221c-1.275,0.664-2.526,1.447-3.752,2.352
			c-0.098,0.078-0.205,0.117-0.322,0.117v1.258l4.688,1.547v1.152l-5.418-1.779c-0.117-0.039-0.213-0.102-0.291-0.191
			c-0.049-0.107-0.074-0.213-0.074-0.32V6.426c0-0.039,0-0.079,0-0.118c0.01-0.079,0.035-0.147,0.074-0.204
			c0.078-0.098,0.174-0.171,0.291-0.22c0.118-0.029,0.229-0.029,0.336,0l5.082,1.694V8.731z M9.021,14.762
			c-0.049,0.02-0.083,0.047-0.102,0.076c-0.088,0.025-0.176,0.062-0.264,0.102c-0.243-0.332-0.52-0.66-0.832-0.979
			c0.438-0.283,0.837-0.602,1.198-0.951v0.379c-0.243,0.215-0.497,0.422-0.76,0.615c0.166,0.184,0.332,0.379,0.497,0.584
			l0.014-0.016c0.088-0.027,0.171-0.062,0.249-0.102V14.762z M14.746,20.209c0.076-0.02,0.145-0.014,0.203,0.016l2.338,0.758
			c-0.352-0.262-0.691-0.535-1.023-0.816c-0.564-0.477-1.07-0.975-1.518-1.49v-0.438c0.477,0.584,1.045,1.158,1.707,1.723
			c0.779,0.672,1.646,1.305,2.6,1.898c0.08,0.029,0.15,0.039,0.219,0.029c0.078-0.02,0.137-0.059,0.176-0.117
			c0.039-0.076,0.053-0.152,0.045-0.219c-0.029-0.068-0.078-0.123-0.146-0.16c-0.936-0.584-1.787-1.203-2.557-1.854
			c-0.701-0.615-1.299-1.252-1.795-1.914c-0.088-0.09-0.172-0.182-0.248-0.277v-0.482c0.156,0.195,0.303,0.398,0.438,0.613
			c0.496,0.643,1.1,1.266,1.811,1.869c0.73,0.623,1.568,1.223,2.512,1.797c0.049,0.037,0.098,0.082,0.146,0.131v-8.178
			c-1.1,0-2.234,0.092-3.404,0.279c-0.457,0.068-0.914,0.154-1.371,0.262c-0.039,0.01-0.082,0.014-0.131,0.014v-0.275
			c0.02,0,0.043-0.006,0.072-0.018c0.457-0.096,0.916-0.184,1.373-0.262c1.197-0.184,2.35-0.277,3.461-0.277
			c0.078,0,0.137-0.025,0.176-0.074c0.057-0.057,0.086-0.131,0.086-0.217c0-0.059-0.029-0.118-0.086-0.177
			c-0.039-0.057-0.098-0.086-0.176-0.086c-1.15,0-2.322,0.096-3.52,0.292c-0.467,0.066-0.93,0.154-1.387,0.262v-0.307
			c0.438-0.086,0.881-0.165,1.328-0.234c1.227-0.194,2.42-0.292,3.578-0.292V9.227l-4.906-1.605V6.482c0.029,0,0.053,0,0.072,0
			c0.049,0,0.102,0.01,0.16,0.029l5.404,1.796c0.107,0.029,0.193,0.092,0.262,0.19c0.078,0.098,0.117,0.21,0.117,0.335v13.698
			c0,0.115-0.039,0.225-0.117,0.32c-0.068,0.098-0.154,0.16-0.262,0.189c-0.127,0.049-0.244,0.049-0.352,0l-5.285-1.736V20.209z
			 M9.021,15.375v0.043c-0.01-0.01-0.015-0.018-0.015-0.029L9.021,15.375z M7.021,14.324l-0.015-0.014
			c-0.769-0.75-1.66-1.406-2.672-1.972v4.892c1.12-0.809,2.259-1.514,3.417-2.117C7.527,14.842,7.284,14.578,7.021,14.324z"/>
		<path fill-rule="evenodd" clip-rule="evenodd" fill="#D6CBB9" d="M14.746,6.482v1.139h-0.102c0.018,0.137-0.006,0.263-0.074,0.38
			c-0.865,1.684-1.262,3.306-1.182,4.861c0.418-0.107,0.836-0.209,1.256-0.305c0.027-0.02,0.062-0.035,0.102-0.045v0.307
			c-0.029,0-0.049,0-0.061,0c-0.523,0.117-1.039,0.254-1.547,0.408c-0.164-1.723,0.234-3.503,1.197-5.344
			c0.029-0.059,0.041-0.125,0.029-0.204c-0.029-0.069-0.082-0.126-0.16-0.175c-0.059-0.029-0.121-0.035-0.191-0.016
			c-0.076,0.02-0.139,0.064-0.189,0.131c-1.021,2.005-1.435,3.923-1.24,5.755c-1.207,0.377-2.395,0.84-3.562,1.385v-0.291
			c1.08-0.506,2.171-0.934,3.271-1.285c-0.146-1.704,0.225-3.466,1.11-5.286l-2.044,0.424c0.01,0.009,0.015,0.02,0.015,0.029
			c0.186,1.178-0.171,2.38-1.066,3.605c-0.273,0.37-0.569,0.721-0.891,1.051c-0.117,0.137-0.248,0.264-0.395,0.379V13.01
			c0.068-0.066,0.142-0.131,0.219-0.189c0.292-0.321,0.579-0.666,0.861-1.037c0.837-1.148,1.164-2.278,0.979-3.387
			c-0.01-0.079-0.044-0.138-0.102-0.175c-0.068-0.049-0.136-0.059-0.205-0.029c-0.077,0.009-0.136,0.039-0.175,0.086
			c-0.059,0.059-0.083,0.127-0.073,0.206c0.156,0.973-0.136,1.967-0.876,2.978c-0.195,0.263-0.404,0.516-0.628,0.759v-0.408
			c0.146-0.167,0.282-0.341,0.409-0.526H9.416c0.681-0.925,0.963-1.834,0.847-2.73l-0.963,0.19c-0.088,0.02-0.18,0.014-0.278-0.016
			V7.579L9.24,7.622l5.432-1.139C14.682,6.482,14.707,6.482,14.746,6.482z M14.746,20.209v1.096l-5.447,1.152
			c-0.088,0.02-0.18,0.01-0.278-0.029v-1.152l0.219,0.072l0.701-0.174c-0.01-0.021-0.015-0.045-0.015-0.072
			c-0.028-1.471-0.331-2.805-0.905-4.004v-0.611c0.759,1.361,1.153,2.9,1.182,4.615c0,0.066,0.029,0.125,0.088,0.174
			c0.068,0.049,0.137,0.072,0.204,0.072c0.079,0,0.141-0.029,0.19-0.086c0.058-0.059,0.087-0.117,0.087-0.178
			c-0.058-1.975-0.564-3.742-1.519-5.299c-0.068-0.117-0.146-0.238-0.233-0.367v-0.043c0.048-0.008,0.087-0.023,0.117-0.043h0.015
			c1.148-0.555,2.321-1.018,3.519-1.387c0.254,1.4,0.877,2.744,1.869,4.029c0.068,0.098,0.137,0.186,0.205,0.264v0.438
			c-0.146-0.176-0.289-0.35-0.424-0.525c-0.955-1.219-1.578-2.506-1.869-3.871c-1.032,0.342-2.049,0.746-3.052,1.215
			c0.029,0.057,0.063,0.111,0.102,0.16c0.955,1.557,1.471,3.33,1.548,5.314l3.621-0.76C14.682,20.209,14.707,20.209,14.746,20.209z
			 M14.746,13.652c-0.41,0.088-0.818,0.195-1.227,0.322c0.205,0.994,0.611,1.957,1.227,2.891v0.482
			c-0.818-1.129-1.334-2.322-1.547-3.578c0.506-0.137,1.021-0.268,1.547-0.393V13.652z"/>
		<path fill-rule="evenodd" clip-rule="evenodd" fill="#DE9714" d="M9.021,13.01v-0.789c0.224-0.243,0.433-0.496,0.628-0.759
			c0.74-1.011,1.032-2.005,0.876-2.978c-0.01-0.079,0.015-0.147,0.073-0.206c0.039-0.048,0.098-0.077,0.175-0.086
			c0.069-0.029,0.136-0.02,0.205,0.029c0.058,0.037,0.092,0.096,0.102,0.175c0.186,1.109-0.141,2.239-0.979,3.387
			C9.819,12.154,9.533,12.5,9.24,12.82C9.163,12.879,9.089,12.943,9.021,13.01z M14.746,17.348v0.891
			c-0.068-0.078-0.137-0.166-0.205-0.264c-0.992-1.285-1.615-2.629-1.869-4.029c-1.197,0.369-2.37,0.832-3.519,1.387H9.138
			c-0.029,0.02-0.068,0.035-0.117,0.043v-0.613c1.167-0.545,2.355-1.008,3.562-1.385c-0.194-1.832,0.219-3.75,1.24-5.755
			c0.051-0.067,0.113-0.112,0.189-0.131c0.07-0.02,0.133-0.014,0.191,0.016c0.078,0.049,0.131,0.106,0.16,0.175
			c0.012,0.078,0,0.145-0.029,0.204c-0.963,1.841-1.361,3.621-1.197,5.344c0.508-0.154,1.023-0.291,1.547-0.408
			c0.012,0,0.031,0,0.061,0v0.557c-0.525,0.125-1.041,0.256-1.547,0.393C13.412,15.025,13.928,16.219,14.746,17.348z M9.021,16.486
			v-1.068c0.087,0.129,0.166,0.25,0.233,0.367c0.954,1.557,1.46,3.324,1.519,5.299c0,0.061-0.029,0.119-0.087,0.178
			c-0.049,0.057-0.111,0.086-0.19,0.086c-0.067,0-0.136-0.023-0.204-0.072c-0.059-0.049-0.088-0.107-0.088-0.174
			C10.174,19.387,9.781,17.848,9.021,16.486z"/>
		<path fill-rule="evenodd" clip-rule="evenodd" fill="#008EAF" d="M9.021,11.813V8.731c0.098,0.03,0.189,0.036,0.278,0.016
			l0.963-0.19c0.117,0.896-0.166,1.806-0.847,2.73h0.015C9.304,11.472,9.168,11.647,9.021,11.813z M9.021,14.471v-1.082
			c0.146-0.115,0.278-0.242,0.395-0.379c0.321-0.33,0.617-0.681,0.891-1.051c0.895-1.225,1.251-2.427,1.066-3.605
			c0-0.01-0.005-0.02-0.015-0.029L13.402,7.9c-0.886,1.82-1.256,3.582-1.11,5.286C11.192,13.537,10.102,13.965,9.021,14.471z
			 M14.746,7.622v4.892c-0.039,0.01-0.074,0.025-0.102,0.045c-0.42,0.096-0.838,0.197-1.256,0.305
			c-0.08-1.556,0.316-3.177,1.182-4.861c0.068-0.118,0.092-0.243,0.074-0.38H14.746z M14.746,16.865
			c-0.615-0.934-1.021-1.896-1.227-2.891c0.408-0.127,0.816-0.234,1.227-0.322V16.865z M14.746,18.676v1.533
			c-0.039,0-0.064,0-0.074,0l-3.621,0.76c-0.077-1.984-0.593-3.758-1.548-5.314c-0.038-0.049-0.072-0.104-0.102-0.16
			c1.002-0.469,2.02-0.873,3.052-1.215c0.291,1.365,0.914,2.652,1.869,3.871C14.457,18.326,14.6,18.5,14.746,18.676z M9.021,21.275
			v-4.178c0.575,1.199,0.877,2.533,0.905,4.004c0,0.027,0.005,0.051,0.015,0.072L9.24,21.348L9.021,21.275z"/>
		<path fill-rule="evenodd" clip-rule="evenodd" fill="#00A6CC" d="M14.746,12.514V7.622l4.906,1.605v2.761
			c-1.158,0-2.352,0.098-3.578,0.292C15.627,12.349,15.184,12.427,14.746,12.514z M9.021,17.098v4.178l-4.688-1.547v-1.258
			c0.117,0,0.224-0.039,0.322-0.117c1.226-0.904,2.477-1.688,3.752-2.352c0.049,0.07,0.099,0.143,0.146,0.221
			C8.72,16.504,8.875,16.797,9.021,17.098z M9.021,8.731v3.083c-0.136,0.145-0.263,0.286-0.38,0.423
			c-0.379,0.361-0.778,0.685-1.196,0.978c-0.818-0.75-1.767-1.411-2.848-1.985c-0.087-0.049-0.174-0.073-0.263-0.073V7.198
			L9.021,8.731z M9.021,14.471c-0.078,0.039-0.161,0.074-0.249,0.102l-0.014,0.016c-0.166-0.205-0.331-0.4-0.497-0.584
			c0.263-0.193,0.517-0.4,0.76-0.615V14.471z M7.021,14.324c0.263,0.254,0.506,0.518,0.73,0.789
			c-1.159,0.604-2.298,1.309-3.417,2.117v-4.892c1.013,0.565,1.903,1.222,2.672,1.972L7.021,14.324z M14.746,18.676
			c0.447,0.516,0.953,1.014,1.518,1.49c0.332,0.281,0.672,0.555,1.023,0.816l-2.338-0.758c-0.059-0.029-0.127-0.035-0.203-0.016
			V18.676z M14.746,16.865v-3.213c0.049,0,0.092-0.004,0.131-0.014c0.457-0.107,0.914-0.193,1.371-0.262
			c1.17-0.188,2.305-0.279,3.404-0.279v8.178c-0.049-0.049-0.098-0.094-0.146-0.131c-0.943-0.574-1.781-1.174-2.512-1.797
			c-0.711-0.604-1.314-1.227-1.811-1.869C15.049,17.264,14.902,17.061,14.746,16.865z"/>
		<path fill-rule="evenodd" clip-rule="evenodd" fill="#FCAD1C" d="M9.021,15.418v1.068c-0.068-0.146-0.146-0.283-0.234-0.408
			c-0.087-0.146-0.18-0.293-0.278-0.439c-1.363,0.701-2.701,1.533-4.015,2.498c-0.059,0.039-0.126,0.049-0.204,0.029
			c-0.088,0-0.146-0.029-0.176-0.088c-0.049-0.07-0.069-0.139-0.059-0.205c0.02-0.088,0.054-0.156,0.102-0.205
			c1.314-0.953,2.654-1.781,4.016-2.482c-0.282-0.369-0.598-0.719-0.948-1.051c-0.02-0.01-0.035-0.02-0.044-0.029
			c-0.837-0.828-1.835-1.547-2.994-2.161c-0.058-0.039-0.102-0.092-0.131-0.161c-0.02-0.068-0.005-0.141,0.044-0.219
			c0.02-0.059,0.068-0.098,0.146-0.116c0.078-0.03,0.151-0.025,0.219,0.014c1.129,0.604,2.117,1.303,2.964,2.104
			c0.507-0.332,0.969-0.707,1.387-1.125c0.078-0.079,0.146-0.151,0.205-0.22v0.789c-0.361,0.35-0.76,0.668-1.198,0.951
			c0.312,0.318,0.589,0.646,0.832,0.979c0.088-0.039,0.176-0.076,0.264-0.102c0.018-0.029,0.053-0.057,0.102-0.076v0.613
			l-0.015,0.014C9.007,15.4,9.012,15.408,9.021,15.418z M14.746,13.377V12.82c0.457-0.107,0.92-0.195,1.387-0.262
			c1.197-0.196,2.369-0.292,3.52-0.292c0.078,0,0.137,0.029,0.176,0.086c0.057,0.059,0.086,0.118,0.086,0.177
			c0,0.086-0.029,0.16-0.086,0.217c-0.039,0.049-0.098,0.074-0.176,0.074c-1.111,0-2.264,0.094-3.461,0.277
			c-0.457,0.078-0.916,0.166-1.373,0.262C14.789,13.371,14.766,13.377,14.746,13.377z M14.746,18.238v-0.891
			c0.076,0.096,0.16,0.188,0.248,0.277c0.496,0.662,1.094,1.299,1.795,1.914c0.77,0.65,1.621,1.27,2.557,1.854
			c0.068,0.037,0.117,0.092,0.146,0.16c0.008,0.066-0.006,0.143-0.045,0.219c-0.039,0.059-0.098,0.098-0.176,0.117
			c-0.068,0.01-0.139,0-0.219-0.029c-0.953-0.594-1.82-1.227-2.6-1.898C15.791,19.396,15.223,18.822,14.746,18.238z"/>
	</g>
	<g>
		<g>
			<path fill-rule="evenodd" clip-rule="evenodd" fill="#C72820" d="M16.303,4.398c0,0.496-0.094,0.949-0.277,1.359
				c-0.049,0.096-0.1,0.18-0.146,0.247l-3.067,6.324L9.774,6.004C9.726,5.938,9.671,5.854,9.614,5.757
				c-0.185-0.41-0.278-0.863-0.278-1.359c0-0.955,0.341-1.776,1.022-2.468c0.672-0.672,1.49-1.008,2.454-1.008
				s1.792,0.335,2.483,1.008C15.967,2.623,16.303,3.444,16.303,4.398z M15.047,4.311c0-0.631-0.229-1.173-0.688-1.62
				c-0.438-0.449-0.963-0.672-1.577-0.672c-0.632,0-1.168,0.223-1.605,0.672c-0.448,0.447-0.673,0.989-0.673,1.62
				c0,0.623,0.225,1.154,0.673,1.592c0.438,0.449,0.973,0.672,1.605,0.672c0.614,0,1.14-0.223,1.577-0.672
				C14.818,5.465,15.047,4.934,15.047,4.311z"/>
			<path fill-rule="evenodd" clip-rule="evenodd" fill="#F1EEE5" d="M15.047,4.311c0,0.623-0.229,1.154-0.688,1.592
				c-0.438,0.449-0.963,0.672-1.577,0.672c-0.632,0-1.168-0.223-1.605-0.672c-0.448-0.438-0.673-0.969-0.673-1.592
				c0-0.631,0.225-1.173,0.673-1.62c0.438-0.449,0.973-0.672,1.605-0.672c0.614,0,1.14,0.223,1.577,0.672
				C14.818,3.138,15.047,3.679,15.047,4.311z"/>
		</g>
	</g>
</g>
</svg>
