<?xml version="1.0" encoding="utf-8"?>
<!-- Generator: Adobe Illustrator 25.1.0, SVG Export Plug-In . SVG Version: 6.00 Build 0)  -->
<svg version="1.1" id="圖層_1" xmlns="http://www.w3.org/2000/svg" xmlns:xlink="http://www.w3.org/1999/xlink" x="0px" y="0px"
	 viewBox="0 0 512 512" style="enable-background:new 0 0 512 512;" xml:space="preserve">
<style type="text/css">
	.st0{fill:#FFFFFF;}
</style>
<g>
	<path class="st0" d="M194.7,296.9h-81.8c-11.3,0-20.4,9.2-20.4,20.4c0,11.3,9.2,20.4,20.4,20.4h61.3v61.3
		c0,11.3,9.2,20.4,20.4,20.4c11.3,0,20.4-9.2,20.4-20.4v-81.8C215.1,306,206,296.9,194.7,296.9C194.7,296.9,194.7,296.9,194.7,296.9
		z"/>
	<path class="st0" d="M399.1,296.9h-81.8c-11.3,0-20.4,9.1-20.4,20.4c0,0,0,0,0,0v81.8c0,11.3,9.2,20.4,20.4,20.4
		c11.3,0,20.4-9.2,20.4-20.4v-61.3h61.3c11.3,0,20.4-9.2,20.4-20.4C419.5,306,410.4,296.9,399.1,296.9z"/>
	<path class="st0" d="M317.3,215.1h81.8c11.3,0,20.4-9.2,20.4-20.4c0-11.3-9.2-20.4-20.4-20.4h-61.3v-61.3
		c0-11.3-9.2-20.4-20.4-20.4c-11.3,0-20.4,9.2-20.4,20.4v81.8C296.9,206,306,215.1,317.3,215.1C317.3,215.1,317.3,215.1,317.3,215.1
		z"/>
	<path class="st0" d="M194.7,92.5c-11.3,0-20.4,9.1-20.4,20.4c0,0,0,0,0,0v61.3h-61.3c-11.3,0-20.4,9.2-20.4,20.4
		c0,11.3,9.2,20.4,20.4,20.4h81.8c11.3,0,20.4-9.1,20.4-20.4c0,0,0,0,0,0v-81.8C215.1,101.6,206,92.5,194.7,92.5
		C194.7,92.5,194.7,92.5,194.7,92.5z"/>
</g>
</svg>
