<?xml version="1.0" encoding="utf-8"?>
<!-- Generator: Adobe Illustrator 16.0.0, SVG Export Plug-In . SVG Version: 6.00 Build 0)  -->
<!DOCTYPE svg PUBLIC "-//W3C//DTD SVG 1.1//EN" "http://www.w3.org/Graphics/SVG/1.1/DTD/svg11.dtd">
<svg version="1.1" id="圖層_1" xmlns="http://www.w3.org/2000/svg" xmlns:xlink="http://www.w3.org/1999/xlink" x="0px" y="0px"
	 width="28.35px" height="28.35px" viewBox="0 0 28.35 28.35" enable-background="new 0 0 28.35 28.35" xml:space="preserve">
<path fill-rule="evenodd" clip-rule="evenodd" d="M22.212,2.802L22.212,2.802c1.342,1.34,2.01,3.102,2.01,4.861
	c0,1.763-0.668,3.525-2.01,4.865l-4.242,4.242c-1.342,1.343-3.104,2.011-4.865,2.011c-0.954,0-1.908-0.194-2.794-0.587l3.137-3.137
	c0.697-0.071,1.371-0.374,1.904-0.905l4.242-4.244c0.619-0.617,0.928-1.432,0.928-2.245s-0.309-1.625-0.928-2.242l0,0
	c-0.613-0.614-1.428-0.922-2.242-0.922s-1.629,0.308-2.242,0.922l-4.246,4.247c-0.132,0.13-0.248,0.271-0.354,0.419l-3.945,3.944
	c-0.221-0.688-0.329-1.405-0.329-2.121c0-1.76,0.668-3.525,2.005-4.862l4.247-4.246c1.337-1.337,3.099-2.008,4.863-2.008
	C19.113,0.794,20.876,1.465,22.212,2.802L22.212,2.802z M21.802,14.371l-4.312,4.312l-3.378,3.379l-0.869,0.868
	c-0.615,0.614-1.429,0.922-2.243,0.922c-0.813,0-1.627-0.308-2.242-0.922l0,0c-0.615-0.615-0.921-1.428-0.921-2.241
	c0-0.815,0.307-1.629,0.921-2.249l4.248-4.243c0.492-0.493,1.111-0.786,1.753-0.887l3.195-3.19
	c-0.861-0.365-1.783-0.549-2.705-0.549c-1.763,0-3.527,0.667-4.863,2.007l-4.247,4.244c-1.339,1.342-2.01,3.104-2.01,4.867
	c0,1.756,0.671,3.519,2.01,4.861l0,0C7.475,26.888,9.24,27.556,11,27.556c1.762,0,3.527-0.668,4.863-2.005l4.248-4.248
	c1.336-1.336,2.01-3.099,2.01-4.862C22.12,15.742,22.011,15.044,21.802,14.371z"/>
</svg>
