<?xml version="1.0" encoding="utf-8"?>
<!-- Generator: Adobe Illustrator 24.3.0, SVG Export Plug-In . SVG Version: 6.00 Build 0)  -->
<svg version="1.1" id="Icons" xmlns="http://www.w3.org/2000/svg" xmlns:xlink="http://www.w3.org/1999/xlink" x="0px" y="0px"
	 viewBox="0 0 24 24" style="enable-background:new 0 0 24 24;" xml:space="preserve">
<style type="text/css">
	.st0{fill:#FFFFFF;}
</style>
<g>
	<g>
		<path class="st0" d="M5.9,10l1-0.1c0,0.2,0.1,0.4,0.3,0.5c0.1,0.1,0.3,0.2,0.5,0.2s0.4-0.1,0.5-0.2c0.1-0.1,0.2-0.3,0.2-0.5
			S8.3,9.5,8.2,9.4C8.1,9.2,7.9,9.2,7.7,9.2c-0.1,0-0.3,0-0.5,0.1l0.1-0.7c0.3,0,0.5,0,0.6-0.1C8.1,8.3,8.2,8.2,8.2,8
			c0-0.1-0.1-0.3-0.2-0.3C7.9,7.6,7.8,7.5,7.6,7.5c-0.2,0-0.3,0-0.5,0.1C7,7.8,6.9,7.9,6.9,8.1L6,8c0-0.3,0.1-0.5,0.3-0.6
			C6.4,7.2,6.6,7.1,6.8,7C7,6.9,7.3,6.9,7.6,6.9c0.5,0,0.9,0.1,1.2,0.4C9.1,7.5,9.2,7.7,9.2,8c0,0.4-0.3,0.7-0.8,0.9
			C8.8,8.9,9,9,9.2,9.2s0.3,0.4,0.3,0.7c0,0.4-0.2,0.7-0.5,1s-0.8,0.4-1.3,0.4S6.8,11.2,6.5,11C6.1,10.7,5.9,10.4,5.9,10z"/>
		<path class="st0" d="M13.6,7.9l-1,0.1c0-0.2-0.1-0.3-0.2-0.4c-0.1-0.1-0.2-0.1-0.4-0.1s-0.4,0.1-0.6,0.2c-0.2,0.2-0.2,0.5-0.3,1
			c0.3-0.2,0.6-0.4,1-0.4s0.8,0.1,1.1,0.4c0.3,0.3,0.5,0.6,0.5,1s-0.2,0.8-0.5,1.1s-0.7,0.4-1.3,0.4c-0.5,0-1-0.2-1.3-0.5
			c-0.4-0.3-0.5-0.9-0.5-1.7s0.2-1.4,0.6-1.7C11,7,11.5,6.9,12.1,6.9c0.4,0,0.8,0.1,1,0.3C13.4,7.3,13.6,7.6,13.6,7.9z M11.3,9.7
			c0,0.3,0.1,0.5,0.2,0.6c0.2,0.1,0.3,0.2,0.5,0.2s0.4-0.1,0.5-0.2c0.1-0.1,0.2-0.3,0.2-0.6s-0.1-0.5-0.2-0.6C12.4,9.1,12.2,9,12,9
			s-0.4,0.1-0.5,0.2C11.4,9.3,11.3,9.5,11.3,9.7z"/>
		<path class="st0" d="M16.1,6.9c0.5,0,0.9,0.1,1.2,0.4c0.4,0.4,0.5,0.9,0.5,1.8c0,0.8-0.2,1.4-0.5,1.8c-0.3,0.3-0.7,0.4-1.2,0.4
			s-1-0.2-1.3-0.5s-0.5-0.9-0.5-1.7s0.2-1.4,0.5-1.8C15.2,7,15.6,6.9,16.1,6.9z M16.1,7.5c-0.1,0-0.2,0-0.3,0.1s-0.2,0.2-0.2,0.3
			c-0.1,0.2-0.1,0.6-0.1,1.1s0,0.9,0.1,1c0.1,0.2,0.1,0.3,0.2,0.4c0.1,0.1,0.2,0.1,0.3,0.1s0.2,0,0.3-0.1c0.1-0.1,0.2-0.2,0.2-0.3
			c0.1-0.2,0.1-0.6,0.1-1.1s0-0.9-0.1-1c-0.1-0.2-0.1-0.3-0.2-0.4C16.3,7.6,16.2,7.5,16.1,7.5z"/>
	</g>
	<g>
		<g>
			<path class="st0" d="M8.7,14.7c-3.6-0.5-6.1-1.7-6.1-3.1c0-0.8,0.8-1.6,2.2-2.1V8.7c-2.6,0.8-4.2,2-4.2,3.3
				c0,1.9,3.4,3.5,8.1,4.1C8.7,16.1,8.7,14.7,8.7,14.7z"/>
			<path class="st0" d="M19,8.7v0.8c1.4,0.6,2.2,1.3,2.2,2.1c0,1.5-2.8,2.7-6.5,3.1V16c4.9-0.5,8.5-2.1,8.5-4.1
				C23.2,10.7,21.6,9.5,19,8.7z"/>
		</g>
		<polygon class="st0" points="8.4,13.4 8.1,17.4 12.5,15.4 		"/>
	</g>
	<path class="st0" d="M18.6,6.8c-0.6,0-1.1-0.5-1.1-1.1s0.5-1.1,1.1-1.1s1.1,0.5,1.1,1.1S19.1,6.8,18.6,6.8z M18.6,5.2
		c-0.3,0-0.5,0.2-0.5,0.5s0.2,0.5,0.5,0.5S19,6,19,5.7S18.8,5.2,18.6,5.2z"/>
</g>
</svg>
