<?xml version="1.0" encoding="utf-8"?>
<!-- Generator: Adobe Illustrator 24.1.3, SVG Export Plug-In . SVG Version: 6.00 Build 0)  -->
<svg version="1.1" id="Layer_1" xmlns="http://www.w3.org/2000/svg" xmlns:xlink="http://www.w3.org/1999/xlink" x="0px" y="0px"
	 viewBox="0 0 91 91" style="enable-background:new 0 0 91 91;" xml:space="preserve">
<g>
	<path d="M30,0c-8.5,0-15.4,6.9-15.4,15.4S30,40.1,30,40.1S45.5,24,45.5,15.4C45.5,7.1,38.6,0,30,0z M30,22.3
		c-3.9,0-7.2-3.3-7.2-7.2s3.3-7.2,7.2-7.2s7.2,3.3,7.2,7.2C37.3,19.2,34,22.3,30,22.3z"/>
	<path d="M60.1,24.7H46.3c-1.5,0-2.8,1.3-2.8,2.8s1.3,2.8,2.8,2.8h8.2v50.3h-49V30.2h8.2c1.5,0,2.8-1.3,2.8-2.8s-1.3-2.8-2.8-2.8
		H0.1v61.3h60l0,0H80c6.1,0,11-4.9,11-11V40.3H60.1C60.1,40.3,60.1,24.7,60.1,24.7z M67.5,53.4h10.8V59H67.5V53.4z M67.5,67h10.8
		v5.6H67.5V67z"/>
	<rect x="18.7" y="64.9" width="5.6" height="10.2"/>
	<rect x="18.7" y="44.4" width="5.6" height="10.2"/>
	<rect x="35.8" y="64.9" width="5.6" height="10.2"/>
	<rect x="35.8" y="44.4" width="5.6" height="10.2"/>
</g>
</svg>
