<?xml version="1.0" encoding="utf-8"?>
<!-- Generator: Adobe Illustrator 16.0.0, SVG Export Plug-In . SVG Version: 6.00 Build 0)  -->
<!DOCTYPE svg PUBLIC "-//W3C//DTD SVG 1.1//EN" "http://www.w3.org/Graphics/SVG/1.1/DTD/svg11.dtd">
<svg version="1.1" id="圖層_1" xmlns="http://www.w3.org/2000/svg" xmlns:xlink="http://www.w3.org/1999/xlink" x="0px" y="0px"
	 width="28.35px" height="28.35px" viewBox="0 0 28.35 28.35" enable-background="new 0 0 28.35 28.35" xml:space="preserve">
<path fill-rule="evenodd" clip-rule="evenodd" d="M22.352,25.555l-6.247-5.765c-1.354,0.751-2.913,1.183-4.572,1.183
	c-5.211,0-9.436-4.227-9.436-9.441c0-5.207,4.225-9.434,9.436-9.434s9.437,4.227,9.437,9.434c0,1.913-0.568,3.688-1.543,5.172
	l5.99,5.53c0.509,0.414,0.837,1.046,0.837,1.758c0,1.247-1.015,2.261-2.265,2.261C23.346,26.252,22.764,25.988,22.352,25.555
	L22.352,25.555z M5.117,11.531c0,3.545,2.873,6.419,6.415,6.419s6.416-2.874,6.416-6.419c0-3.539-2.874-6.412-6.416-6.412
	S5.117,7.993,5.117,11.531z"/>
</svg>
