<?xml version="1.0" encoding="utf-8"?>
<!-- Generator: Adobe Illustrator 23.1.1, SVG Export Plug-In . SVG Version: 6.00 Build 0)  -->
<svg version="1.1" id="Layer_1" xmlns="http://www.w3.org/2000/svg" xmlns:xlink="http://www.w3.org/1999/xlink" x="0px" y="0px"
	 viewBox="0 0 32 32" style="enable-background:new 0 0 32 32;" xml:space="preserve">
<style type="text/css">
	.st0{fill:#FFFFFF;}
</style>
<path class="st0" d="M26.7,10.7h-3.6V8.9c0-3.9-3.2-7.1-7.1-7.1S8.9,4.9,8.9,8.9v1.8H5.3c-1,0-1.8,0.8-1.8,1.8v10.7
	c0,3.9,3.2,7.1,7.1,7.1h10.7c3.9,0,7.1-3.2,7.1-7.1V12.4C28.5,11.5,27.7,10.7,26.7,10.7z M12.4,8.9c0-2,1.6-3.6,3.6-3.6
	s3.6,1.6,3.6,3.6v1.8h-7.1V8.9z M24.9,23.1c0,2-1.6,3.6-3.6,3.6H10.7c-2,0-3.6-1.6-3.6-3.6v-8.9h1.8V16c0,1,0.8,1.8,1.8,1.8
	s1.8-0.8,1.8-1.8v-1.8h7.1V16c0,1,0.8,1.8,1.8,1.8c1,0,1.8-0.8,1.8-1.8v-1.8h1.8V23.1z"/>
</svg>
