<?xml version="1.0" encoding="utf-8"?>
<!-- Generator: Adobe Illustrator 16.0.4, SVG Export Plug-In . SVG Version: 6.00 Build 0)  -->
<!DOCTYPE svg PUBLIC "-//W3C//DTD SVG 1.1//EN" "http://www.w3.org/Graphics/SVG/1.1/DTD/svg11.dtd">
<svg version="1.1" id="Layer_1" xmlns="http://www.w3.org/2000/svg" xmlns:xlink="http://www.w3.org/1999/xlink" x="0px" y="0px"
	 width="56.693px" height="56.693px" viewBox="0 0 56.693 56.693" enable-background="new 0 0 56.693 56.693" xml:space="preserve">
<g>
	<path d="M10.727,11.102V4.604c0-0.898,0.727-1.625,1.625-1.625c0.897,0,1.624,0.726,1.624,1.625v6.498
		c0,0.898-0.727,1.625-1.624,1.625C11.454,12.726,10.727,12,10.727,11.102z M38.344,12.726c0.897,0,1.624-0.727,1.624-1.625V4.604
		c0-0.898-0.727-1.625-1.624-1.625c-0.898,0-1.625,0.726-1.625,1.625v6.498C36.719,12,37.446,12.726,38.344,12.726z M54.464,41.592
		c0,6.695-5.427,12.122-12.122,12.122c-6.692,0-12.12-5.427-12.12-12.122c0-6.692,5.428-12.12,12.12-12.12
		C49.037,29.471,54.464,34.898,54.464,41.592z M51.433,41.592c0-5.012-4.078-9.09-9.091-9.09s-9.091,4.078-9.091,9.09
		c0,5.014,4.078,9.091,9.091,9.091S51.433,46.605,51.433,41.592z M17.225,22.473h-6.498v6.499h6.498V22.473z M10.727,38.719h6.498
		V32.22h-6.498V38.719z M20.474,28.971h6.498v-6.499h-6.498V28.971z M20.474,38.719h6.498V32.22h-6.498V38.719z M7.478,41.643
		V19.224h35.739v9.122h3.249V13.05c0-1.974-1.574-3.573-3.52-3.573h-1.354v1.625c0,1.79-1.456,3.249-3.248,3.249
		c-1.793,0-3.249-1.459-3.249-3.249V9.477H15.6v1.625c0,1.79-1.456,3.249-3.248,3.249c-1.793,0-3.249-1.459-3.249-3.249V9.477H7.75
		c-1.944,0-3.521,1.599-3.521,3.573v28.594c0,1.967,1.576,3.572,3.521,3.572h19.223v-3.25H7.75
		C7.602,41.967,7.478,41.815,7.478,41.643z M36.719,28.971v-6.499h-6.498v6.499H36.719z M48.86,40.135h-5.006V35.13h-3.273v5.006
		h-5.006v3.273h5.006v5.006h3.273v-5.006h5.006V40.135z"/>
</g>
</svg>
