<?xml version="1.0" encoding="utf-8"?>
<!-- Generator: Adobe Illustrator 25.0.1, SVG Export Plug-In . SVG Version: 6.00 Build 0)  -->
<svg version="1.1" id="圖層_1" xmlns="http://www.w3.org/2000/svg" xmlns:xlink="http://www.w3.org/1999/xlink" x="0px" y="0px"
	 viewBox="0 0 32 32" style="enable-background:new 0 0 32 32;" xml:space="preserve">
<style type="text/css">
	.st0{fill:#FFFFFF;}
</style>
<g id="Layer_2">
	<path class="st0" d="M21,14V8c0-3.3-2.7-6-6-6c-2,0-3.9,1-5,2.7l10.8,10.8C20.9,15,21,14.5,21,14z"/>
	<path class="st0" d="M25,14c0-0.6-0.4-1-1-1s-1,0.4-1,1c0,1.1-0.2,2.1-0.6,3.1l1.5,1.5C24.6,17.2,25,15.6,25,14z"/>
	<path class="st0" d="M28.7,26.3L28.7,26.3l-5.9-5.9l-1.5-1.5l-1.4-1.4L9.1,6.7L4.7,2.3c-0.4-0.4-1-0.4-1.4,0s-0.4,1,0,1.4L9,9.4V14
		c0,3.3,2.7,6,6,6c1.2,0,2.5-0.4,3.5-1.1l0,0l1.4,1.4c-3.5,2.7-8.5,2.1-11.2-1.4C7.6,17.5,7,15.8,7,14c0-0.6-0.4-1-1-1s-1,0.4-1,1
		c0,5.1,3.9,9.4,9,10v4h-4c-0.6,0-1,0.4-1,1s0.4,1,1,1h10c0.6,0,1-0.4,1-1s-0.4-1-1-1h-4v-4c2-0.2,3.8-1,5.3-2.2l6,6
		c0.4,0.4,1,0.4,1.4,0c0,0,0,0,0,0C29.1,27.4,29.1,26.7,28.7,26.3C28.7,26.3,28.7,26.3,28.7,26.3z"/>
</g>
</svg>
