<?xml version="1.0" encoding="utf-8"?>
<!-- Generator: Adobe Illustrator 16.0.0, SVG Export Plug-In . SVG Version: 6.00 Build 0)  -->
<!DOCTYPE svg PUBLIC "-//W3C//DTD SVG 1.1//EN" "http://www.w3.org/Graphics/SVG/1.1/DTD/svg11.dtd">
<svg version="1.1"
	 id="圖層_1" xmlns:dc="http://purl.org/dc/elements/1.1/" xmlns:rdf="http://www.w3.org/1999/02/22-rdf-syntax-ns#" xmlns:cc="http://creativecommons.org/ns#"
	 xmlns="http://www.w3.org/2000/svg" xmlns:xlink="http://www.w3.org/1999/xlink" x="0px" y="0px" width="24px" height="24px"
	 viewBox="0 0 24 24" enable-background="new 0 0 24 24" xml:space="preserve">
<g transform="translate(0 -1028.4)">
	<path fill="#BDC3C7" d="M5,1032.4c-1.104,0-2,0.9-2,2v14c0,1.1,0.896,2,2,2h6h2h6c1.105,0,2-0.9,2-2v-14c0-1.1-0.895-2-2-2h-6h-2H5
		z"/>
	<path fill="#ECF0F1" d="M5,1031.4c-1.104,0-2,0.896-2,2v14c0,1.105,0.896,2,2,2h6h2h6c1.105,0,2-0.895,2-2v-14c0-1.104-0.895-2-2-2
		h-6h-2H5z"/>
	<path fill="#E74C3C" d="M5,1031.4c-1.104,0-2,0.9-2,2v3h18v-3c0-1.1-0.895-2-2-2h-6h-2H5z"/>
	<path fill="#C0392B" d="M7.5,1033.9c0,0.829-0.671,1.5-1.5,1.5s-1.5-0.671-1.5-1.5s0.671-1.5,1.5-1.5S7.5,1033.071,7.5,1033.9z"/>
	<path fill="#BDC3C7" d="M6,1029.4c-0.552,0-1,0.448-1,1v3c0,0.552,0.448,1,1,1s1-0.448,1-1v-3C7,1029.848,6.552,1029.4,6,1029.4z"
		/>
	<path fill="#C0392B" d="M19.5,1033.9c0,0.829-0.672,1.5-1.5,1.5s-1.5-0.671-1.5-1.5s0.672-1.5,1.5-1.5S19.5,1033.071,19.5,1033.9z"
		/>
	<g>
		<path fill="#BDC3C7" d="M18,1029.4c-0.552,0-1,0.4-1,1v3c0,0.5,0.448,1,1,1s1-0.5,1-1v-3C19,1029.8,18.552,1029.4,18,1029.4z"/>
		<path fill="#BDC3C7" d="M5,1039.4v2h2v-2H5z M8,1039.4v2h2v-2H8z M11,1039.4v2h2v-2H11z M14,1039.4v2h2v-2H14z M17,1039.4v2h2v-2
			H17z"/>
		<path fill="#BDC3C7" d="M5,1042.4v2h2v-2H5z M8,1042.4v2h2v-2H8z M11,1042.4v2h2v-2H11z M14,1042.4v2h2v-2H14z M17,1042.4v2h2v-2
			H17z"/>
		<path fill="#BDC3C7" d="M5,1045.4v2h2v-2H5z M8,1045.4v2h2v-2H8z M11,1045.4v2h2v-2H11z M14,1045.4v2h2v-2H14z M17,1045.4v2h2v-2
			H17z"/>
	</g>
	<rect x="3" y="1036.4" fill="#C0392B" width="18" height="1"/>
</g>
</svg>
