<?xml version="1.0" encoding="utf-8"?>
<!-- Generator: Adobe Illustrator 25.0.1, SVG Export Plug-In . SVG Version: 6.00 Build 0)  -->
<svg version="1.1" id="Layer_1" xmlns="http://www.w3.org/2000/svg" xmlns:xlink="http://www.w3.org/1999/xlink" x="0px" y="0px"
	 viewBox="0 0 24 24" style="enable-background:new 0 0 24 24;" xml:space="preserve">
<style type="text/css">
	.st0{fill:#FFFFFF;}
</style>
<g>
	<path class="st0" d="M6,6.2c-0.7,0.3-1.2,1-1.2,1.9v6.4c0,1.1,0.9,2.1,2.1,2.1H16c0.1,0,0.2,0,0.3,0L6,6.2z"/>
	<path class="st0" d="M17.8,15.2c0.1-0.2,0.2-0.5,0.2-0.8v-0.8l2.5,1.9c0.1,0.1,0.2,0.1,0.4,0c0.1-0.1,0.2-0.1,0.2-0.3V7.3
		c0-0.1-0.1-0.2-0.2-0.3c-0.1-0.1-0.3-0.1-0.4,0L18,8.9V8.1C18,6.9,17,6,15.9,6H8.6L17.8,15.2z"/>
</g>
<path class="st0" d="M16.3,16.6H6.7c-1,0-1.9-0.8-1.9-1.9V7.9c0-1,0.8-1.9,1.9-1.9h9.6c1,0,1.9,0.8,1.9,1.9v6.9
	C18.2,15.8,17.3,16.6,16.3,16.6z"/>
</svg>
