<?xml version="1.0" encoding="utf-8"?>
<!-- Generator: Adobe Illustrator 25.0.1, SVG Export Plug-In . SVG Version: 6.00 Build 0)  -->
<svg version="1.1" id="圖層_1" xmlns="http://www.w3.org/2000/svg" xmlns:xlink="http://www.w3.org/1999/xlink" x="0px" y="0px"
	 viewBox="0 0 32 32" style="enable-background:new 0 0 32 32;" xml:space="preserve">
<style type="text/css">
	.st0{fill:#FFFFFF;}
</style>
<path class="st0" d="M15,2L15,2c-3.3,0-6,2.7-6,6V14c0,3.3,2.7,6,6,6h0c3.3,0,6-2.7,6-6V8C21,4.7,18.3,2,15,2z"/>
<path class="st0" d="M25.1,14c0-0.6-0.4-1-1-1s-1,0.4-1,1c0,1.8-0.6,3.5-1.7,4.9c-1.6,2-3.9,3.1-6.3,3.1c-2.4,0-4.7-1-6.3-3.1
	C7.6,17.5,7,15.8,7,14c0-0.6-0.4-1-1-1s-1,0.4-1,1c0,5.1,3.9,9.4,9,10v4h-4c-0.6,0-1,0.4-1,1s0.4,1,1,1h5h5c0.6,0,1-0.4,1-1
	s-0.4-1-1-1h-4v-4C21.2,23.4,25.1,19.1,25.1,14z"/>
</svg>
