<svg width="12" height="15" viewBox="0 0 12 15" fill="none" xmlns="http://www.w3.org/2000/svg">
<path d="M9.913 10.4188L5.92824 14.4189L1.94348 10.4188C1.15538 9.62765 0.618679 8.61967 0.401246 7.52232C0.183814 6.42497 0.295415 5.28754 0.721937 4.25386C1.14846 3.22019 1.87075 2.33669 2.79746 1.71509C3.72417 1.09349 4.81369 0.761719 5.92824 0.761719C7.04279 0.761719 8.13231 1.09349 9.05902 1.71509C9.98573 2.33669 10.708 3.22019 11.1345 4.25386C11.5611 5.28754 11.6727 6.42497 11.4552 7.52232C11.2378 8.61967 10.7011 9.62765 9.913 10.4188ZM5.92824 7.67579C6.26037 7.67579 6.57889 7.54334 6.81374 7.30759C7.04859 7.07183 7.18052 6.75208 7.18052 6.41867C7.18052 6.08527 7.04859 5.76552 6.81374 5.52976C6.57889 5.29401 6.26037 5.16156 5.92824 5.16156C5.59612 5.16156 5.27759 5.29401 5.04274 5.52976C4.8079 5.76552 4.67596 6.08527 4.67596 6.41867C4.67596 6.75208 4.8079 7.07183 5.04274 7.30759C5.27759 7.54334 5.59612 7.67579 5.92824 7.67579Z" fill="#5366A4"/>
</svg>
