<?xml version="1.0" encoding="utf-8"?>
<!-- Generator: Adobe Illustrator 25.0.1, SVG Export Plug-In . SVG Version: 6.00 Build 0)  -->
<svg version="1.1" id="Layer_1" xmlns="http://www.w3.org/2000/svg" xmlns:xlink="http://www.w3.org/1999/xlink" x="0px" y="0px"
	 viewBox="0 0 24 24" style="enable-background:new 0 0 24 24;" xml:space="preserve">
<style type="text/css">
	.st0{fill:#FFFFFF;}
</style>
<path class="st0" d="M23.2,6c-0.2-0.1-0.4-0.1-0.5,0l-3.5,2.7V7.5c0-1.6-1.3-2.9-2.9-2.9H3.4c-1.6,0-2.9,1.3-2.9,2.9v9
	c0,1.6,1.3,2.9,2.9,2.9h12.9c1.6,0,2.9-1.3,2.9-2.9v-1.2l3.5,2.7c0.1,0.1,0.3,0.1,0.5,0s0.3-0.2,0.3-0.4V6.4
	C23.5,6.2,23.4,6.1,23.2,6z"/>
</svg>
