<?xml version="1.0" encoding="utf-8"?>
<!-- Generator: Adobe Illustrator 25.0.1, SVG Export Plug-In . SVG Version: 6.00 Build 0)  -->
<svg version="1.1" id="圖層_1" xmlns="http://www.w3.org/2000/svg" xmlns:xlink="http://www.w3.org/1999/xlink" x="0px" y="0px"
	 viewBox="0 0 512 512" style="enable-background:new 0 0 512 512;" xml:space="preserve">
<style type="text/css">
	.st0{fill:#FFFFFF;}
</style>
<g id="Layer_1">
</g>
<path class="st0" d="M256,24.2c-121.8,0-220.5,98.7-220.5,220.5S134.2,465.2,256,465.2s220.5-98.7,220.5-220.5S377.8,24.2,256,24.2z
	 M292.5,382c0,17-14,31-31,31h-11c-17,0-31-14-31-31V252c0-17,14-31,31-31h11c17,0,31,14,31,31V382z M256,180
	c-22.4,0-40.5-18.1-40.5-40.5S233.6,99,256,99s40.5,18.1,40.5,40.5S278.4,180,256,180z"/>
</svg>
