<svg xmlns="http://www.w3.org/2000/svg" viewBox="0 0 16 16" width="16" height="16">
	<style>
		tspan { white-space:pre }
		.shp0 { fill: #000000 } 
	</style>
	<path id="Shape 1" class="shp0" d="M1 2L4 2L4 4L1 4L1 2Z" />
	<path id="Shape 2" class="shp0" d="M6 2L15 2L15 4L6 4L6 2Z" />
	<path id="Shape 3" class="shp0" d="M1 7L4 7L4 9L1 9L1 7Z" />
	<path id="Shape 4" class="shp0" d="M6 7L15 7L15 9L6 9L6 7Z" />
	<path id="Shape 5" class="shp0" d="M1 12L4 12L4 14L1 14L1 12Z" />
	<path id="Shape 6" class="shp0" d="M6 12L15 12L15 14L6 14L6 12Z" />
</svg>