<?xml version="1.0" encoding="utf-8"?>
<!-- Generator: Adobe Illustrator 16.0.0, SVG Export Plug-In . SVG Version: 6.00 Build 0)  -->
<!DOCTYPE svg PUBLIC "-//W3C//DTD SVG 1.1//EN" "http://www.w3.org/Graphics/SVG/1.1/DTD/svg11.dtd">
<svg version="1.1" id="圖層_1" xmlns="http://www.w3.org/2000/svg" xmlns:xlink="http://www.w3.org/1999/xlink" x="0px" y="0px"
	 width="28.35px" height="28.35px" viewBox="0 0 28.35 28.35" enable-background="new 0 0 28.35 28.35" xml:space="preserve">
<g id="Livello_1_1_">
</g>
<g>
	<path fill-rule="evenodd" clip-rule="evenodd" d="M13.373,23.997V8.365c0-0.29-0.152-0.542-0.381-0.684
		c-1.577-1.175-3.25-2.07-4.974-2.733C6.124,4.22,4.187,3.77,2.247,3.554c-0.498,0-0.898,0.332-0.898,0.803v15.633
		c0,0.428,0.379,0.779,0.8,0.801c1.806,0.203,3.564,0.613,5.302,1.282c1.606,0.615,3.167,1.458,4.642,2.562
		c0.354,0.267,0.852,0.194,1.117-0.157C13.313,24.338,13.373,24.17,13.373,23.997L13.373,23.997z"/>
	<path fill-rule="evenodd" clip-rule="evenodd" d="M14.975,23.997c0,0.173,0.062,0.341,0.164,0.48
		c0.266,0.352,0.768,0.424,1.117,0.157c1.477-1.104,3.037-1.947,4.643-2.562c1.738-0.669,3.496-1.079,5.301-1.282
		c0.422-0.021,0.803-0.373,0.803-0.801V4.356c0-0.471-0.402-0.803-0.898-0.803C24.164,3.77,22.225,4.22,20.33,4.948
		c-1.723,0.663-3.395,1.559-4.973,2.733c-0.229,0.142-0.382,0.394-0.382,0.684V23.997z"/>
</g>
</svg>
