<?xml version="1.0" encoding="utf-8"?>
<!-- Generator: Adobe Illustrator 24.3.0, SVG Export Plug-In . SVG Version: 6.00 Build 0)  -->
<svg version="1.1" id="Icons" xmlns="http://www.w3.org/2000/svg" xmlns:xlink="http://www.w3.org/1999/xlink" x="0px" y="0px"
	 viewBox="0 0 24 24" style="enable-background:new 0 0 24 24;" xml:space="preserve">
<style type="text/css">
	.st0{fill:#FFFFFF;}
	.st1{fill-rule:evenodd;clip-rule:evenodd;fill:#FFFFFF;}
</style>
<g>
	<g>
		<path class="st0" d="M6.6,10.1V9.3h3.2v0.7c-0.3,0.3-0.5,0.6-0.8,1.1c-0.3,0.5-0.5,1-0.6,1.5c-0.1,0.5-0.2,1-0.2,1.5H7.2
			c0-0.7,0.2-1.4,0.4-2.1c0.3-0.7,0.6-1.3,1-1.9H6.6z"/>
		<path class="st0" d="M13.5,13.2v0.9h-3.3c0-0.3,0.1-0.6,0.3-0.9c0.2-0.3,0.5-0.7,1-1.2c0.4-0.4,0.7-0.7,0.8-0.8
			c0.1-0.2,0.2-0.4,0.2-0.6c0-0.2-0.1-0.4-0.2-0.5C12.3,10,12.1,10,11.9,10c-0.2,0-0.3,0.1-0.5,0.2c-0.1,0.1-0.2,0.3-0.2,0.6
			l-0.9-0.1c0.1-0.5,0.2-0.9,0.5-1.1s0.7-0.3,1.1-0.3c0.5,0,0.9,0.1,1.1,0.4c0.3,0.3,0.4,0.6,0.4,1c0,0.2,0,0.4-0.1,0.6
			c-0.1,0.2-0.2,0.4-0.4,0.6c-0.1,0.1-0.3,0.3-0.6,0.6c-0.3,0.3-0.5,0.4-0.6,0.5c-0.1,0.1-0.1,0.2-0.2,0.3H13.5z"/>
		<path class="st0" d="M15.7,9.2c0.5,0,0.8,0.2,1.1,0.5c0.3,0.4,0.5,1.1,0.5,2c0,0.9-0.2,1.6-0.5,2c-0.3,0.3-0.6,0.5-1.1,0.5
			c-0.5,0-0.9-0.2-1.1-0.5c-0.3-0.4-0.4-1-0.4-1.9c0-0.9,0.2-1.6,0.5-2C14.9,9.3,15.2,9.2,15.7,9.2z M15.7,10c-0.1,0-0.2,0-0.3,0.1
			c-0.1,0.1-0.2,0.2-0.2,0.4c-0.1,0.2-0.1,0.6-0.1,1.2c0,0.6,0,1,0.1,1.2c0.1,0.2,0.1,0.4,0.2,0.4c0.1,0.1,0.2,0.1,0.3,0.1
			c0.1,0,0.2,0,0.3-0.1c0.1-0.1,0.2-0.2,0.2-0.4c0.1-0.2,0.1-0.6,0.1-1.2c0-0.6,0-1-0.1-1.2c-0.1-0.2-0.1-0.4-0.2-0.4
			C15.9,10,15.8,10,15.7,10z"/>
	</g>
	<path class="st1" d="M12,1.2C6,1.2,1.2,6,1.2,12C1.2,18,6,22.8,12,22.8c6,0,10.8-4.8,10.8-10.8C22.8,6,18,1.2,12,1.2z M12,21.6
		c-5.3,0-9.6-4.3-9.6-9.6S6.7,2.4,12,2.4s9.6,4.3,9.6,9.6S17.3,21.6,12,21.6z"/>
	<path class="st1" d="M22.8,12c0-3.8-4.8-7-10.8-7C6,5,1.2,8.2,1.2,12c0,3.8,4.8,7,10.8,7C18,19,22.8,15.8,22.8,12z M2.4,12
		c0-3.4,4.3-6.2,9.6-6.2s9.6,2.8,9.6,6.2s-4.3,6.2-9.6,6.2S2.4,15.4,2.4,12z"/>
	<path class="st1" d="M12,1.2C8.2,1.2,5,6,5,12c0,6,3.1,10.8,7,10.8c3.8,0,7-4.8,7-10.8C19,6,15.8,1.2,12,1.2z M12,21.6
		c-3.4,0-6.2-4.3-6.2-9.6S8.6,2.4,12,2.4s6.2,4.3,6.2,9.6S15.4,21.6,12,21.6z"/>
</g>
</svg>
