<?xml version="1.0" encoding="utf-8"?>
<!-- Generator: Adobe Illustrator 16.0.0, SVG Export Plug-In . SVG Version: 6.00 Build 0)  -->
<!DOCTYPE svg PUBLIC "-//W3C//DTD SVG 1.1//EN" "http://www.w3.org/Graphics/SVG/1.1/DTD/svg11.dtd">
<svg version="1.1" id="圖層_1" xmlns="http://www.w3.org/2000/svg" xmlns:xlink="http://www.w3.org/1999/xlink" x="0px" y="0px"
	 width="28.35px" height="28.35px" viewBox="0 0 28.35 28.35" enable-background="new 0 0 28.35 28.35" xml:space="preserve">
<g>
	<g>
		<g id="Folder">
			<g>
				<path fill="#5F5F5F" d="M23.82,5.22H11.418c0-0.763-0.616-1.379-1.377-1.379H4.53c-0.763,0-1.379,0.616-1.379,1.379v1.377v2.067
					v0.688c0,0.762,0.616,1.378,1.379,1.378h19.29c0.761,0,1.378-0.616,1.378-1.378V6.597C25.198,5.836,24.581,5.22,23.82,5.22z"/>
			</g>
		</g>
		<g id="File_1_">
			<g>
				<path fill="#FFFFFF" d="M22.443,6.597H5.907c-0.761,0-1.377,0.616-1.377,1.378v1.378c0,0.762,0.616,1.378,1.377,1.378h16.536
					c0.76,0,1.377-0.616,1.377-1.378V7.975C23.82,7.213,23.203,6.597,22.443,6.597z"/>
			</g>
		</g>
		<g id="Folder_1_">
			<g>
				<path fill="#9E9E9E" d="M23.82,7.975H4.53c-0.763,0-1.379,0.617-1.379,1.378v13.779c0,0.762,0.616,1.377,1.379,1.377h19.29
					c0.761,0,1.378-0.615,1.378-1.377V9.353C25.198,8.592,24.581,7.975,23.82,7.975z"/>
			</g>
		</g>
	</g>
	<circle fill="#FFFFFF" cx="18.154" cy="16.942" r="4.979"/>
	<path fill="#9E9E9E" d="M21.282,17.249c0,0.557-0.451,1.008-1.008,1.008h-4.287c-0.557,0-1.008-0.451-1.008-1.008l0,0
		c0-0.557,0.451-1.008,1.008-1.008h4.287C20.831,16.241,21.282,16.692,21.282,17.249L21.282,17.249z"/>
	<path fill="#9E9E9E" d="M18.153,20.4c-0.557,0-1.008-0.451-1.008-1.008v-4.287c0-0.557,0.451-1.008,1.008-1.008l0,0
		c0.557,0,1.008,0.451,1.008,1.008v4.287C19.161,19.949,18.71,20.4,18.153,20.4L18.153,20.4z"/>
</g>
</svg>
