<?xml version="1.0" encoding="utf-8"?>
<!-- Generator: Adobe Illustrator 14.0.0, SVG Export Plug-In  -->
<!DOCTYPE svg PUBLIC "-//W3C//DTD SVG 1.1//EN" "http://www.w3.org/Graphics/SVG/1.1/DTD/svg11.dtd" [
	<!ENTITY ns_flows "http://ns.adobe.com/Flows/1.0/">
]>
<svg version="1.1"
	 xmlns="http://www.w3.org/2000/svg" xmlns:xlink="http://www.w3.org/1999/xlink" xmlns:a="http://ns.adobe.com/AdobeSVGViewerExtensions/3.0/"
	 x="0px" y="0px" width="40px" height="40px" viewBox="0 0 40 40" enable-background="new 0 0 40 40" xml:space="preserve">
<defs>
</defs>
<path fill-rule="evenodd" clip-rule="evenodd" d="M29.844,0c0.521,0,1.042,0,1.563,0C36.359,0.776,39.228,3.637,40,8.594
	c0,0.521,0,1.042,0,1.563c-0.268,3.614-2.442,5.489-4.609,7.656c-1.792,1.791-3.603,3.603-5.313,5.313
	c-0.204,0.204-0.354,0.604-0.703,0.547c0.279-2.135-0.106-4.193-0.625-5.781c0.982-1.098,2.019-2.019,3.047-3.047
	c1.059-1.059,2.342-2.028,2.969-3.203c2.204-4.13-2.328-8.582-6.406-6.406c-0.902,0.481-1.666,1.51-2.5,2.344
	c-1.649,1.649-3.228,3.228-4.844,4.844c-0.84,0.84-1.87,1.611-2.344,2.5c-0.667,1.249-0.701,3.102-0.078,4.375
	c0.371,0.76,1.264,1.244,1.484,1.953c0.654,2.107-1.137,3.043-2.109,3.984c-2.631-1.667-4.667-4.438-4.531-8.438
	c0.162-4.791,3.732-7.248,6.484-10C22.815,3.904,25.455,0.415,29.844,0z"/>
<path fill-rule="evenodd" clip-rule="evenodd" d="M10.156,40c-0.521,0-1.042,0-1.563,0C3.641,39.224,0.772,36.363,0,31.406
	c0-0.521,0-1.041,0-1.563c0.28-3.778,2.683-5.73,4.922-7.969c1.897-1.897,3.753-3.831,5.547-5.625
	c0.238-0.238,0.599-0.696,0.781-0.547c-0.071,1.047-0.163,1.928-0.078,2.891c0.092,1.041,0.734,2.047,0.625,2.813
	c-0.075,0.524-1.187,1.421-1.563,1.797c-0.653,0.652-1.245,1.167-1.719,1.641c-1.088,1.088-2.661,2.353-3.281,3.516
	c-2.162,4.053,2.222,8.639,6.406,6.406c0.976-0.521,2.029-1.795,2.734-2.5c1.717-1.718,3.479-3.558,5.234-5.313
	c0.883-0.883,2.055-1.781,2.5-2.813c0.506-1.174,0.444-2.879,0-3.906c-0.388-0.898-1.301-1.265-1.563-2.031
	c-0.72-2.106,1.085-3.079,2.109-4.063c2.414,1.721,4.531,4.026,4.531,7.969c0,5.183-3.913,7.897-6.719,10.703
	C17.374,35.908,14.976,39.342,10.156,40z"/>
</svg>
