<?xml version="1.0" encoding="utf-8"?>
<!-- Generator: Adobe Illustrator 25.0.1, SVG Export Plug-In . SVG Version: 6.00 Build 0)  -->
<svg version="1.1" id="圖層_1" xmlns="http://www.w3.org/2000/svg" xmlns:xlink="http://www.w3.org/1999/xlink" x="0px" y="0px"
	 viewBox="0 0 300 300" style="enable-background:new 0 0 300 300;" xml:space="preserve">
<style type="text/css">
	.st0{fill:#F22525;}
	.st1{fill:#FFFFFF;}
</style>
<g>
	<circle class="st0" cx="150" cy="150" r="150"/>
</g>
<path class="st1" d="M140.2,142.9c16.2-1.6,31.2,1.5,39.5,3.5l6.7,2.1c0.1,1.7,0.5,14.6,1.4,20.9c1.1,7.9,10.2,7.1,10.2,7.1
	s27.6,0,33.5-0.4c5.9-0.4,8-5.6,8-5.6c2.3-10.9,5.5-21.5-12-39.8c-16.7-16.7-46.7-21.3-73.8-20.9c-28.8-1.3-62.9,2.4-81.1,20.7
	c-17.5,18.3-14.3,28.9-12,39.7c0,0,2.1,5.1,8,5.6c5.9,0.4,33.5,0.4,33.5,0.4s9,0.8,10.2-7.1c0.9-5.9,1.3-17.6,1.4-20.4
	C113.6,148.7,129.2,143.9,140.2,142.9z"/>
</svg>
