<?xml version="1.0" encoding="utf-8"?>
<!-- Generator: Adobe Illustrator 25.0.1, SVG Export Plug-In . SVG Version: 6.00 Build 0)  -->
<svg version="1.1" id="Layer_1" xmlns="http://www.w3.org/2000/svg" xmlns:xlink="http://www.w3.org/1999/xlink" x="0px" y="0px"
	 viewBox="0 0 24 24" style="enable-background:new 0 0 24 24;" xml:space="preserve">
<style type="text/css">
	.st0{fill:#FFFFFF;}
</style>
<g>
	<path class="st0" d="M6,6.2c-0.7,0.3-1.2,1-1.2,1.9v6.4c0,1.1,0.9,2.1,2.1,2.1h9.1c0.1,0,0.2,0,0.3,0L6,6.2z"/>
	<path class="st0" d="M17.8,15.2c0.1-0.2,0.2-0.5,0.2-0.8v-0.8l2.5,1.9c0.1,0.1,0.2,0.1,0.4,0c0.1-0.1,0.2-0.1,0.2-0.3V7.3
		c0-0.1-0.1-0.2-0.2-0.3c-0.1-0.1-0.3-0.1-0.4,0L18,8.9V8.1C18,6.9,17,6,15.9,6H8.6L17.8,15.2z"/>
</g>
<path class="st0" d="M21.6,22.7L21.6,22.7c-0.4,0.4-1,0.4-1.4,0L0.8,3.3c-0.4-0.4-0.4-1,0-1.4l0,0c0.4-0.4,1-0.4,1.4,0l19.4,19.4
	C22,21.7,22,22.3,21.6,22.7z"/>
</svg>
