<?xml version="1.0" encoding="utf-8"?>
<!-- Generator: Adobe Illustrator 16.0.0, SVG Export Plug-In . SVG Version: 6.00 Build 0)  -->
<!DOCTYPE svg PUBLIC "-//W3C//DTD SVG 1.1//EN" "http://www.w3.org/Graphics/SVG/1.1/DTD/svg11.dtd">
<svg version="1.1" id="圖層_1" xmlns="http://www.w3.org/2000/svg" xmlns:xlink="http://www.w3.org/1999/xlink" x="0px" y="0px"
	 width="28.35px" height="28.35px" viewBox="0 0 28.35 28.35" enable-background="new 0 0 28.35 28.35" xml:space="preserve">
<path fill-rule="evenodd" clip-rule="evenodd" fill="#FFFFFF" d="M18.754,9.934c0.062,0.033,0.119,0.068,0.177,0.108l0.174,0.117
	l0.004,0.212c0.011,0.608-0.062,1.124-0.224,1.521c-0.146,0.363-0.365,0.634-0.654,0.796c-0.2,0.71-0.431,1.366-0.763,1.917
	c-0.379,0.635-0.879,1.125-1.588,1.386c-0.315,0.117-1.127,0.17-1.905,0.159c-0.752-0.013-1.504-0.085-1.804-0.225
	c-0.645-0.297-1.097-0.797-1.44-1.417c-0.294-0.531-0.504-1.149-0.688-1.801c-0.3-0.158-0.527-0.427-0.679-0.792
	c-0.168-0.4-0.242-0.924-0.233-1.543l0.003-0.212l0.173-0.117c0.046-0.029,0.09-0.06,0.135-0.085
	c-0.196-2.438-0.123-3.338,0.785-4.37c1.765-1.447,5.813-1.396,7.599-0.085C19.047,6.654,19.131,7.943,18.754,9.934L18.754,9.934z
	 M15.049,16.984l0.025,0.562l-0.331,0.547l0.461,3.029l1.891-4.065l2.879-0.096c1.486,1.404,2.44,4.719,2.206,6.878
	c-5.349,0-10.698,0-16.045,0c0.041-1.897,0.391-5.138,2.278-6.785l2.602,0.022l2.436,4.019l0.456-3.002l-0.329-0.547l0.025-0.562
	C14.233,16.949,14.418,16.949,15.049,16.984L15.049,16.984z M17.203,9.068c-1.146,0.223-2.849,0.417-4.194-0.337
	c-0.52-0.292-1.278,0.304-1.897,0.243c-0.192,0.381-0.336,0.797-0.419,1.239l-0.069,0.365l-0.368-0.034
	c-0.067-0.008-0.14,0.001-0.213,0.027c-0.033,0.01-0.065,0.023-0.1,0.039c0.011,0.406,0.065,0.741,0.171,0.993
	c0.094,0.223,0.222,0.367,0.389,0.419l0.213,0.065l0.06,0.217c0.181,0.668,0.383,1.299,0.667,1.811
	c0.262,0.478,0.601,0.856,1.066,1.07c0.196,0.091,0.822,0.143,1.476,0.15c0.695,0.012,1.387-0.025,1.616-0.111
	c0.514-0.188,0.884-0.555,1.172-1.036c0.311-0.52,0.53-1.174,0.723-1.894l0.055-0.208l0.203-0.071
	c0.162-0.056,0.289-0.204,0.377-0.427c0.104-0.252,0.158-0.582,0.166-0.979c-0.03-0.014-0.058-0.027-0.088-0.037
	c-0.074-0.025-0.144-0.035-0.208-0.029l-0.358,0.021l-0.065-0.352C17.499,9.808,17.368,9.422,17.203,9.068z"/>
</svg>
