<?xml version="1.0" encoding="utf-8"?>
<!-- Generator: Adobe Illustrator 16.0.0, SVG Export Plug-In . SVG Version: 6.00 Build 0)  -->
<!DOCTYPE svg PUBLIC "-//W3C//DTD SVG 1.1//EN" "http://www.w3.org/Graphics/SVG/1.1/DTD/svg11.dtd">
<svg version="1.1" id="圖層_1" xmlns="http://www.w3.org/2000/svg" xmlns:xlink="http://www.w3.org/1999/xlink" x="0px" y="0px"
	 width="28.35px" height="28.35px" viewBox="0 0 28.35 28.35" enable-background="new 0 0 28.35 28.35" xml:space="preserve">
<circle fill="#ADADAD" cx="14.173" cy="14.175" r="11.518"/>
<path fill="#FFFFFF" d="M12.89,16.515c-0.013-0.088-0.021-0.173-0.021-0.253c0-0.075,0-0.161,0-0.253
	c-0.009-0.425,0.067-0.848,0.229-1.238c0.144-0.332,0.338-0.638,0.575-0.905c0.229-0.251,0.491-0.474,0.771-0.669
	c0.271-0.191,0.524-0.384,0.765-0.576c0.217-0.172,0.411-0.368,0.576-0.586c0.157-0.209,0.237-0.467,0.229-0.727
	c0.008-0.365-0.171-0.709-0.47-0.913c-0.317-0.23-0.809-0.343-1.473-0.343c-0.313-0.002-0.627,0.045-0.928,0.146
	c-0.271,0.093-0.533,0.211-0.782,0.352c-0.221,0.124-0.436,0.266-0.635,0.425c-0.187,0.146-0.347,0.269-0.491,0.365l-1.054-1.364
	c0.267-0.286,0.562-0.538,0.889-0.752c0.33-0.216,0.682-0.395,1.054-0.537c0.368-0.14,0.754-0.247,1.143-0.316
	c0.381-0.071,0.762-0.107,1.15-0.107c1.186,0,2.104,0.249,2.765,0.743c0.643,0.461,1.011,1.21,0.986,1.998
	c0.017,0.471-0.073,0.943-0.255,1.38c-0.146,0.344-0.363,0.659-0.631,0.929c-0.258,0.249-0.541,0.476-0.845,0.67
	c-0.288,0.19-0.567,0.4-0.831,0.628c-0.253,0.22-0.469,0.479-0.646,0.77c-0.187,0.344-0.275,0.729-0.259,1.121L12.89,16.515z
	 M12.563,18.831c-0.018-0.338,0.114-0.67,0.359-0.907c0.259-0.229,0.597-0.346,0.944-0.329c0.359-0.025,0.71,0.098,0.981,0.329
	c0.245,0.237,0.371,0.569,0.355,0.907c0.016,0.342-0.11,0.672-0.355,0.913c-0.271,0.238-0.618,0.36-0.981,0.339
	c-0.348,0.017-0.686-0.106-0.944-0.339C12.682,19.503,12.551,19.173,12.563,18.831L12.563,18.831z"/>
</svg>
