<?xml version="1.0" encoding="utf-8"?>
<!-- Generator: Adobe Illustrator 16.0.0, SVG Export Plug-In . SVG Version: 6.00 Build 0)  -->
<!DOCTYPE svg PUBLIC "-//W3C//DTD SVG 1.1//EN" "http://www.w3.org/Graphics/SVG/1.1/DTD/svg11.dtd">
<svg version="1.1" id="圖層_1" xmlns="http://www.w3.org/2000/svg" xmlns:xlink="http://www.w3.org/1999/xlink" x="0px" y="0px"
	 width="28.35px" height="28.35px" viewBox="0 0 28.35 28.35" enable-background="new 0 0 28.35 28.35" xml:space="preserve">
<linearGradient id="SVGID_1_" gradientUnits="userSpaceOnUse" x1="14.1753" y1="25.625" x2="14.1753" y2="2.7251">
	<stop  offset="0" style="stop-color:#040000"/>
	<stop  offset="0.4759" style="stop-color:#040000"/>
	<stop  offset="0.6474" style="stop-color:#030000"/>
	<stop  offset="0.7696" style="stop-color:#020101"/>
	<stop  offset="0.8683" style="stop-color:#000000"/>
	<stop  offset="0.952" style="stop-color:#010000"/>
	<stop  offset="0.9899" style="stop-color:#000000"/>
</linearGradient>
<path fill-rule="evenodd" clip-rule="evenodd" fill="url(#SVGID_1_)" d="M16.929,20.992l-2.086,4.176
	c-0.104,0.268-0.362,0.457-0.668,0.457c-0.303,0-0.563-0.189-0.666-0.457l-2.088-4.176c-0.069-0.109-0.108-0.109-0.108-0.377
	c0-0.266,0.32-0.715,0.715-0.715h4.294c0.396,0,0.716,0.449,0.716,0.715C17.038,20.883,16.998,20.883,16.929,20.992L16.929,20.992z
	 M11.421,7.355l2.088-4.173c0.103-0.27,0.363-0.458,0.666-0.458c0.306,0,0.564,0.188,0.668,0.458l2.086,4.173
	c0.069,0.11,0.109,0.112,0.109,0.379s-0.32,0.715-0.716,0.715h-4.294c-0.395,0-0.715-0.448-0.715-0.715S11.352,7.466,11.421,7.355
	L11.421,7.355z M20.995,11.421l4.174,2.087c0.268,0.102,0.456,0.362,0.456,0.667c0,0.304-0.188,0.563-0.459,0.667l-4.171,2.088
	c-0.11,0.068-0.112,0.107-0.379,0.107s-0.717-0.32-0.717-0.715v-4.295c0-0.395,0.45-0.716,0.717-0.716S20.885,11.351,20.995,11.421
	L20.995,11.421z M12.028,11.312h4.294c0.393,0,0.716,0.322,0.716,0.716v4.295c0,0.395-0.323,0.715-0.716,0.715h-4.294
	c-0.394,0-0.715-0.32-0.715-0.715v-4.295C11.313,11.634,11.634,11.312,12.028,11.312L12.028,11.312z M7.356,16.93l-4.172-2.088
	c-0.269-0.104-0.459-0.363-0.459-0.667c0-0.305,0.19-0.565,0.459-0.667l4.172-2.087c0.109-0.07,0.111-0.109,0.379-0.109
	c0.266,0,0.716,0.321,0.716,0.716v4.295c0,0.395-0.451,0.715-0.716,0.715C7.467,17.037,7.465,16.998,7.356,16.93z"/>
</svg>
