<?xml version="1.0" encoding="utf-8"?>
<!-- Generator: Adobe Illustrator 16.0.0, SVG Export Plug-In . SVG Version: 6.00 Build 0)  -->
<!DOCTYPE svg PUBLIC "-//W3C//DTD SVG 1.1//EN" "http://www.w3.org/Graphics/SVG/1.1/DTD/svg11.dtd">
<svg version="1.1" id="圖層_1" xmlns="http://www.w3.org/2000/svg" xmlns:xlink="http://www.w3.org/1999/xlink" x="0px" y="0px"
	 width="28.35px" height="28.35px" viewBox="0 0 28.35 28.35" enable-background="new 0 0 28.35 28.35" xml:space="preserve">
<g>
	<path fill="#E7BE22" d="M24.938,11.86c0,0.216-0.111,0.431-0.336,0.646l-4.696,4.519l1.112,6.566c0.008,0,0.013,0.107,0.013,0.215
		c0,0.215-0.047,0.322-0.142,0.432c-0.086,0.107-0.216,0.215-0.389,0.215c-0.164,0-0.336,0-0.517-0.107l-5.809-3.121l-5.808,3.121
		c-0.189,0.107-0.363,0.107-0.518,0.107c-0.182,0-0.319-0.107-0.414-0.215c-0.086-0.109-0.13-0.217-0.13-0.432
		c0,0,0.009-0.107,0.026-0.215l1.112-6.566l-4.709-4.519c-0.216-0.215-0.323-0.431-0.323-0.646c0-0.322,0.242-0.538,0.725-0.538
		l6.494-0.968l2.91-5.919c0.163-0.324,0.375-0.538,0.634-0.538s0.471,0.214,0.634,0.538l2.91,5.919l6.493,0.968
		C24.695,11.322,24.938,11.538,24.938,11.86"/>
</g>
</svg>
