<?xml version="1.0" encoding="utf-8"?>
<!-- Generator: Adobe Illustrator 16.0.0, SVG Export Plug-In . SVG Version: 6.00 Build 0)  -->
<!DOCTYPE svg PUBLIC "-//W3C//DTD SVG 1.1//EN" "http://www.w3.org/Graphics/SVG/1.1/DTD/svg11.dtd">
<svg version="1.1" id="圖層_1" xmlns="http://www.w3.org/2000/svg" xmlns:xlink="http://www.w3.org/1999/xlink" x="0px" y="0px"
	 width="28.35px" height="28.35px" viewBox="0 0 28.35 28.35" enable-background="new 0 0 28.35 28.35" xml:space="preserve">
<g>
	<linearGradient id="SVGID_1_" gradientUnits="userSpaceOnUse" x1="14.1753" y1="12.5049" x2="14.1753" y2="4.0205">
		<stop  offset="0" style="stop-color:#040000"/>
		<stop  offset="1" style="stop-color:#575858"/>
	</linearGradient>
	<path fill="url(#SVGID_1_)" d="M18.416,12.505h2.359c0.519,0,0.94-0.423,0.94-0.944c0-0.267-0.106-0.501-0.282-0.673l-6.592-6.591
		c-0.184-0.183-0.426-0.275-0.666-0.275c-0.242,0-0.483,0.092-0.668,0.275l-6.592,6.591c-0.173,0.172-0.282,0.406-0.282,0.673
		c0,0.521,0.423,0.944,0.943,0.944h2.356"/>
	
		<linearGradient id="SVGID_2_" gradientUnits="userSpaceOnUse" x1="78.1738" y1="29.0068" x2="78.1738" y2="20.5225" gradientTransform="matrix(-1 0 0 -1 92.3477 44.8516)">
		<stop  offset="0" style="stop-color:#040000"/>
		<stop  offset="1" style="stop-color:#575858"/>
	</linearGradient>
	<path fill="url(#SVGID_2_)" d="M9.934,15.845H7.576c-0.521,0-0.942,0.423-0.942,0.944c0,0.266,0.106,0.501,0.282,0.674l6.591,6.591
		c0.185,0.183,0.427,0.275,0.667,0.275c0.242,0,0.482-0.093,0.668-0.275l6.592-6.591c0.176-0.173,0.282-0.408,0.282-0.674
		c0-0.521-0.423-0.944-0.942-0.944h-2.358"/>
</g>
</svg>
