<?xml version="1.0" encoding="utf-8"?>
<!-- Generator: Adobe Illustrator 16.0.0, SVG Export Plug-In . SVG Version: 6.00 Build 0)  -->
<!DOCTYPE svg PUBLIC "-//W3C//DTD SVG 1.1//EN" "http://www.w3.org/Graphics/SVG/1.1/DTD/svg11.dtd">
<svg version="1.1" id="圖層_1" xmlns="http://www.w3.org/2000/svg" xmlns:xlink="http://www.w3.org/1999/xlink" x="0px" y="0px"
	 width="28.35px" height="28.35px" viewBox="0 0 28.35 28.35" enable-background="new 0 0 28.35 28.35" xml:space="preserve">
<g id="Livello_110">
	<path fill="#040000" d="M18.479,10.836c0,2.457-2.004,4.451-4.472,4.451c-2.468,0-4.47-1.994-4.47-4.451
		c0-2.456,2.002-4.449,4.47-4.449C16.477,6.388,18.479,8.38,18.479,10.836 M23.117,10.836c0-4.916-4.004-8.899-8.942-8.899
		c-4.938,0-8.942,3.984-8.942,8.899c0,2.162,0.775,4.144,2.063,5.685l6.887,9.891l6.987-10.035c0.252-0.312,0.48-0.643,0.688-0.99
		l0.072-0.1h-0.012C22.676,13.979,23.117,12.46,23.117,10.836"/>
</g>
<g id="Livello_1_1_">
</g>
</svg>
