<?xml version="1.0" encoding="utf-8"?>
<!-- Generator: Adobe Illustrator 16.0.0, SVG Export Plug-In . SVG Version: 6.00 Build 0)  -->
<!DOCTYPE svg PUBLIC "-//W3C//DTD SVG 1.1//EN" "http://www.w3.org/Graphics/SVG/1.1/DTD/svg11.dtd">
<svg version="1.1" id="圖層_1" xmlns="http://www.w3.org/2000/svg" xmlns:xlink="http://www.w3.org/1999/xlink" x="0px" y="0px"
	 width="28.35px" height="28.35px" viewBox="0 0 28.35 28.35" enable-background="new 0 0 28.35 28.35" xml:space="preserve">
<g id="Livello_1_1_">
</g>
<path fill-rule="evenodd" clip-rule="evenodd" d="M2.948,2.949H25.6l2.026,5.106h-1.685v17.318h-8.858v-8.034
	c-1.836-1.206-3.613-1.277-5.325,0v8.034H2.474V8.055h-1.75L2.948,2.949L2.948,2.949z M19.833,17.339v4.061h-0.717v0.741h4.742
	v-0.741H23.12v-4.061H19.833L19.833,17.339z M19.833,9.998v4.057h-0.717V14.8h4.742v-0.746H23.12V9.998H19.833L19.833,9.998z
	 M12.723,9.998v4.057h-0.715V14.8h4.742v-0.746h-0.734V9.998H12.723L12.723,9.998z M5.279,17.339v4.061H4.565v0.741h4.743v-0.741
	H8.57v-4.061H5.279L5.279,17.339z M5.279,9.998v4.057H4.565V14.8h4.743v-0.746H8.57V9.998H5.279z"/>
</svg>
