<?xml version="1.0" encoding="UTF-8"?>
<svg id="Layer_1" xmlns="http://www.w3.org/2000/svg" version="1.1" viewBox="0 0 97 114">
  <!-- Generator: Adobe Illustrator 29.5.1, SVG Export Plug-In . SVG Version: 2.1.0 Build 141)  -->
  <defs>
    <style>
      .st0 {
        fill: none;
        stroke-width: 7px;
      }

      .st0, .st1 {
        stroke: #231815;
        stroke-miterlimit: 10;
      }

      .st1 {
        fill: #231815;
        stroke-width: 2px;
      }
    </style>
  </defs>
  <path class="st1" d="M34.8,78.3c-4.2,0-7.7-2.9-8.6-7-.3-1.5,0-3.1.2-4.8l.2-.9c.2-1.2.4-2.4.6-3.6.1-.8.3-1.6.4-2.4.2-.9,0-2.3-1.3-3.6l-1.7-1.6c-1.5-1.4-3-2.9-4.5-4.4s-2.9-5-2.3-7.9c.6-2.8,2.5-5.2,5.1-6.2,1.2-.5,2.5-.7,3.9-.9.4,0,.9,0,1.3-.2,1.1-.2,2.2-.3,3.3-.5.8,0,1.5-.2,2.3-.3.9,0,2.2-.7,3.1-2.4.8-1.6,1.6-3.2,2.4-4.7l1.2-2.5c1.7-3.4,4.3-5,8-5s6.4,1.7,8,5c.4.8.8,1.7,1.2,2.5.7,1.5,1.5,3,2.2,4.5.8,1.6,2,2.4,3.6,2.7,2.9.4,5.8.8,8.7,1.3,3.3.6,5.5,2.6,6.6,6,1,3.3.4,6.1-2,8.6-1.5,1.5-3,3-4.5,4.4-.6.5-1.2,1.1-1.7,1.7-1.1,1.1-1.5,2.4-1.3,4v.4c.6,2.7,1.1,5.5,1.4,8.2.3,2.5-.4,4.9-2.1,6.7-1.6,1.9-4,2.9-6.5,2.9h-.2c-1.5,0-2.8-.3-4.3-1.1-.7-.4-1.4-.7-2.2-1.1-1.5-.8-3.1-1.6-4.6-2.4-.8-.5-1.7-.7-2.5-.7s-1.6.2-2.4.7c-2.3,1.2-4.7,2.5-7.2,3.7-1.3.6-2.6.9-4,.9h.2ZM48.4,67.9c1.4,0,2.9.4,4.3,1.1,2.4,1.2,4.8,2.5,7.1,3.7.7.4,1.4.6,2.1.6s1.5-.2,2.2-.7c1.3-.9,1.8-2.3,1.5-4.1l-.2-1.1c-.3-2-.7-4-1.1-6-.7-3.7.2-6.7,2.8-9.1,1.5-1.4,2.9-2.8,4.3-4.2l1.3-1.3c1.5-1.4,1.4-2.9,1.1-3.9-.5-1.5-1.6-2.5-3.2-2.7l-1.2-.2c-1.9-.3-3.9-.6-5.9-.8-4.2-.4-6.9-2.3-8.5-5.9-.6-1.3-1.2-2.6-1.9-3.8-.4-.8-.8-1.7-1.2-2.5-1-2.1-2.6-2.6-3.7-2.6-1.7,0-2.9.9-3.7,2.6-1.1,2.4-2.3,4.8-3.5,7.1-1.4,2.7-3.6,4.3-6.6,4.9-2.4.4-4.9.7-7.3,1.1h-.9c-.7.2-2.8.5-3.5,2.8-.8,2.3.7,3.7,1.2,4.2,2,1.9,4,3.8,6,5.7,1.2,1.1,1.9,2.5,2.4,4.1.5,1.8.1,3.7-.2,5.7-.3,1.6-.6,3.1-.8,4.6l-.3,1.8v.2c0,1.2.4,2.4,1.2,3.1.7.7,1.6,1.1,2.6,1.1h0c.7,0,1.3-.2,1.9-.5,2.5-1.2,4.9-2.5,7.2-3.7,1.5-.8,3-1.2,4.5-1.2h0Z"/>
  <path class="st0" d="M84.3,93.8l-27.7,14.7c-5.1,2.7-11.1,2.7-16.2,0l-27.7-14.7c-5.7-3-9.2-8.9-9.2-15.3V20.8c0-9.6,7.6-17.3,17.2-17.3h55.5c9.6,0,17.3,7.7,17.3,17.3v57.7c0,6.4-3.5,12.3-9.2,15.3Z"/>
</svg>