<?xml version="1.0" encoding="UTF-8"?>
<svg id="Layer_1" xmlns="http://www.w3.org/2000/svg" version="1.1" viewBox="0 0 105 105.1">
  <!-- Generator: Adobe Illustrator 29.5.1, SVG Export Plug-In . SVG Version: 2.1.0 Build 141)  -->
  <defs>
    <style>
      .st0 {
        stroke: #000;
        stroke-miterlimit: 10;
        stroke-width: 3px;
      }
    </style>
  </defs>
  <path class="st0" d="M31.9,103.4H15.9c-7,0-13.2-5.4-14.2-12.4,0-.2-.1-.5-.2-.6v-3c0-.2,0-.3.2-.6l1-6.3c.4-2.7.9-5.5,1.4-8.2.6-3.6,1.2-7.2,1.8-10.8,1.3-7.7,2.6-15.7,3.9-23.5.9-5.7,3.6-9.6,8.3-11.9,1.8-.9,3.8-1.4,6.4-1.5,1.1,0,1.9-.9,1.9-2v-2.4c0-7.7,4.6-14.5,11.6-17.3,1.1-.4,2.3-.7,3.6-1,.5-.1,1.1-.3,1.6-.4h3.7c.3,0,.6.1,1,.2.8.2,1.6.3,2.3.5,7.9,2.2,13.5,9.6,13.6,17.8v2.5c0,1,.7,1.8,1.7,2,.5,0,.9.1,1.4.2.9.1,1.7.2,2.4.4,5.6,1.3,10,6.1,10.9,11.8.5,3.3,1.1,6.7,1.7,10l.7,4.2c0,.7,0,1.3-.4,1.8-.3.5-.8.8-1.4.8h-.3c-1,0-1.9-.8-2.1-2-.3-1.5-.5-3-.8-4.6-.5-3.3-1.1-6.8-1.7-10.2-.9-4.7-5.1-8.1-10-8.1s-2.1.9-2.1,2v4.1c0,1.3-1.1,2.1-2.1,2.1s-.5,0-.7,0c-.9-.3-1.4-1.1-1.4-2v-4.1c0-1.1-.9-2-2-2h-24.8c-1.1,0-2,.9-2,2v4.1c0,1.3-1.1,2.1-2.1,2.1s-.5,0-.7,0c-.9-.3-1.4-1.1-1.4-2v-4.1c0-1-.8-1.9-1.8-2h-.8c-4.4,0-8.6,3.5-9.4,8.1-.7,3.6-1.3,7.3-1.9,10.8-.2,1.3-.4,2.6-.6,3.9l-1,6c-1.5,9-3,18-4.5,27.1v.4c-.3,1.5-.6,3.2-.4,5,.6,5.3,4.9,8.9,10.3,9h36.6c.7,0,1.3.3,1.8.7.4.4.6.9.6,1.5,0,1.2-1,2.1-2.3,2.1h-21.3v-.2ZM45,5.6c-3,0-5.8,1-8.6,3-4.4,3.2-6.3,8-5.7,14.1,0,1,1,1.8,2,1.8h24.7c1,0,1.9-.8,2-1.8.6-7-1.9-12.2-7.4-15.2-2.3-1.3-4.7-1.9-7-1.9Z"/>
  <path class="st0" d="M84.6,103.4h-7.9c-6,0-10.6-4.6-10.6-10.6v-16.1c0-6,4.6-10.6,10.7-10.6h16.1c6,0,10.6,4.6,10.6,10.6v16.2c0,6-4.6,10.6-10.6,10.6h-8.3,0ZM77.7,70.3h-1.9c-3,.2-5.5,2.9-5.5,6v16.8c0,3.4,2.7,6,6,6h16.8c3.4,0,6-2.7,6-6v-16.8c0-3-2.1-5.5-4.9-5.9h-5.3c-1.1,0-2,.9-2,2v3.9c0,1.3-.9,2.2-2.1,2.2s-2.1-.9-2.1-2.2v-4.1c0-1.1-.9-2-2-2h-2.9v.2h0Z"/>
</svg>