<?xml version="1.0" encoding="UTF-8"?>
<svg id="Layer_1" xmlns="http://www.w3.org/2000/svg" version="1.1" viewBox="0 0 101.2 73.4">
  <!-- Generator: Adobe Illustrator 29.5.1, SVG Export Plug-In . SVG Version: 2.1.0 Build 141)  -->
  <defs>
    <style>
      .st0 {
        stroke-width: 2px;
      }

      .st0, .st1 {
        stroke: #000;
        stroke-miterlimit: 10;
      }

      .st1 {
        fill: none;
        stroke-linecap: round;
        stroke-width: 6px;
      }
    </style>
  </defs>
  <g>
    <path class="st0" d="M23.3,12.1h38.5c8,0,14.2,6.1,14.3,14.2v.7c0,.7.4,1.3,1,1.7.3.2.6.2.9.2s.7,0,1-.3l.4-.2c.3-.2.5-.3.8-.5,1-.7,2.1-1.3,3.1-2,2.4-1.5,4.8-3,7.2-4.6,1.1-.8,2.4-1.2,3.6-1.2,2.9,0,5.4,2,6,4.8,0,.2,0,.3,0,.4v34c0,0,0,.3,0,.4-.7,2.8-3.1,4.7-5.9,4.7s-2.4-.4-3.4-1c-2.4-1.5-4.8-3.1-7.3-4.6l-3.4-2.2c-.2,0-.4-.3-.6-.4l-.3-.2c-.3-.2-.7-.3-1-.3s-.6,0-.9.2c-.6.3-1,.9-1.1,1.5,0,.5,0,.9-.2,1.4,0,.9-.2,1.8-.4,2.6-1.4,6.4-7.1,11-13.7,11H15c-7.7,0-14-6.3-14-14V26.1c0-7.7,6-13.9,13.8-14.2h8.4v.2ZM15.6,16.2c-6,0-10.4,4.4-10.4,10.5v31.3c0,6.2,4.3,10.5,10.5,10.5h45.8c6.2,0,10.5-4.3,10.5-10.5v-8.2c.3-1,1-1.5,1.9-1.5s1,.2,1.4.4c3.8,2.4,7.6,4.8,11.3,7.2l5,3.2c.3.2,1.4.9,1.4.9.3.2.7.3,1.1.3s.7,0,1-.2c.6-.4,1-1,1-1.7V26.3c0-.7-.4-1.4-1-1.7-.3-.2-.6-.2-1-.2s-.7.1-1.1.3c0,0-1.2.8-1.5,1l-3.8,2.4c-4.1,2.6-8.2,5.2-12.3,7.9-.5.3-1,.5-1.4.5s-.6,0-1-.3c-.6-.3-1.1-.8-1.1-2.1v-7.3c0-6.2-4.3-10.5-10.5-10.5H15.4h.2Z"/>
    <path class="st0" d="M30.7,48.5h-1.6c-1.4,0-3,0-4.4-.4-3.8-.8-7.8-4.8-7.5-10.5.2-4.4,3.9-8.5,8.2-9.1,1.8-.2,3.7-.3,5.1-.3h4.9c.9,0,1.8.1,2.7.3,3.9,1,7.7,4.9,7.4,10.5-.2,4.3-3.9,8.4-8.2,9.1-1.2.2-2.6.2-4.1.3h-2.5ZM28.9,32.3h-1.5c-3.4,0-6.1,2.7-6.1,6.1s2.7,5.9,6,6h8c3.4,0,6-2.7,6-6s-2.6-6-6.1-6h-6.3Z"/>
    <path class="st0" d="M57.9,56.5c-1.1,0-2-.9-2-2.1s.9-2,2.1-2,2,.9,2,2.1-.9,2-2.1,2h0Z"/>
  </g>
  <line class="st1" x1="28.1" y1="3" x2="50.7" y2="3"/>
  <path class="st0" d="M19.2,5.1c-1.1,0-2-.9-2-2.1s.9-2,2.1-2,2,.9,2,2.1-.9,2-2.1,2h0Z"/>
</svg>