<?xml version="1.0" encoding="UTF-8"?>
<svg id="_分離模式" xmlns="http://www.w3.org/2000/svg" version="1.1" viewBox="0 0 69.7 61.9">
  <!-- Generator: Adobe Illustrator 29.5.1, SVG Export Plug-In . SVG Version: 2.1.0 Build 141)  -->
  <defs>
    <style>
      .st0, .st1 {
        fill: none;
        stroke: #231815;
        stroke-miterlimit: 10;
        stroke-width: 5px;
      }

      .st1 {
        stroke-linecap: round;
      }
    </style>
  </defs>
  <path class="st0" d="M49.4,51.3h-12.1c-.8,0-1.6.3-2.2.8l-7.9,6.9c-1.2,1-3.1.2-3.1-1.4v-5.5c.1-.4-.2-.7-.6-.7h-3.2c-9.8,0-17.8-8-17.8-17.8v-13.1C2.6,10.5,10.6,2.5,20.4,2.5h29c9.8,0,17.8,8,17.8,17.8v13.1c0,9.8-8,17.8-17.8,17.8h0Z"/>
  <line class="st1" x1="16.2" y1="26.7" x2="53.7" y2="26.7"/>
  <line class="st1" x1="16.2" y1="35.8" x2="53.7" y2="35.8"/>
  <line class="st1" x1="16.2" y1="17.5" x2="53.7" y2="17.5"/>
</svg>